<?xml version="1.0" encoding="UTF-8"?>
<svg viewBox="0 0 500 500" xmlns="http://www.w3.org/2000/svg"><script xmlns=""/>
  <path class="cls-1" d="M 450.873 263.503 C 450.555 255.911 447.249 248.749 441.68 243.604 C 432.68 234.895 422.741 227.217 412.054 220.716 L 412.847 219.923 C 415.79 216.894 417.384 212.801 417.278 208.575 C 417.113 202.947 415.169 197.505 411.723 193.054 C 402.776 181.091 392.525 170.166 381.171 160.485 L 394.397 140.586 C 395.746 138.628 395.944 136.096 394.926 133.946 L 406.168 112.454 C 406.704 111.462 406.975 110.338 406.962 109.207 C 406.988 103.791 401.169 100.378 396.48 103.057 C 395.766 103.46 395.124 103.996 394.595 104.631 L 378.79 123.134 C 376.403 123.088 374.161 124.265 372.838 126.255 L 360.273 144.964 C 340.97 132.207 319.63 122.869 297.185 117.367 C 291.603 113.135 285.486 109.676 278.999 107.084 C 278.271 104.697 277.544 102.442 276.75 100.451 C 277.716 99.016 278.827 97.68 280.057 96.47 C 287.715 89.454 292.099 79.547 292.159 69.138 C 292.529 61.824 289.474 54.755 283.893 50.033 L 282.57 48.975 C 279.138 46.33 274.158 47.401 272.121 51.23 L 271.328 52.685 C 267.565 60.528 261.983 67.353 255.06 72.59 L 252.679 71.459 L 250.563 70.467 C 250.232 66.619 249.967 62.77 249.967 59.119 C 249.518 51.184 250.781 43.241 253.671 35.835 C 255.06 33.315 256.25 32.72 256.514 32.654 C 256.779 32.588 257.837 33.315 259.027 35.703 L 259.027 36.172 C 262.255 41.787 270.336 41.787 273.57 36.179 C 274.323 34.863 274.714 33.368 274.7 31.86 C 274.714 31.047 274.601 30.247 274.37 29.466 L 274.37 29.003 C 272.379 23.244 268.226 18.475 262.797 15.738 C 257.744 13.648 252.037 13.813 247.124 16.201 C 244.664 17.206 242.422 18.667 240.511 20.512 C 237.456 17.457 233.375 15.658 229.07 15.473 C 224.395 15.526 220.096 18.046 217.762 22.106 C 215.044 26.821 213.84 32.27 214.323 37.693 C 214.383 41.82 214.693 45.94 215.249 50.033 C 213.219 49.921 211.241 50.694 209.826 52.156 C 206.209 56.11 204.265 61.315 204.403 66.685 C 204.351 67.611 204.351 68.543 204.403 69.469 C 204.985 74.303 206.857 78.886 209.826 82.735 C 207.009 85.301 204.992 88.614 204.007 92.291 L 180.067 106.555 C 175.279 109.637 172.271 114.854 171.999 120.548 L 171.999 123.2 C 172.006 124.807 172.158 126.407 172.462 127.981 C 160.922 132.789 149.859 138.648 139.397 145.493 C 133.769 136.744 129.325 127.28 126.171 117.367 C 125.357 114.854 123.208 113.009 120.616 112.586 C 108.494 110.443 96.835 118.253 94.164 130.303 C 94.097 130.832 94.097 131.361 94.164 131.896 C 94.144 133.986 95.07 135.983 96.677 137.332 C 105.016 144.289 112.363 152.37 118.5 161.344 C 107.211 171.019 97.027 181.924 88.146 193.854 C 84.654 198.311 82.69 203.774 82.525 209.441 C 82.412 213.667 84.006 217.76 86.955 220.783 L 87.749 221.583 C 77.128 227.951 67.235 235.464 58.255 244.001 C 52.779 249.08 49.505 256.103 49.129 263.569 C 49.029 267.808 50.656 271.895 53.625 274.917 L 80.078 301.449 C 74.516 311.276 71.342 322.273 70.819 333.555 L 70.819 333.555 C 70.687 340.195 77.77 344.48 83.563 341.279 C 85.322 340.301 86.684 338.74 87.418 336.875 L 87.418 337.206 C 88.833 333.76 91.108 330.751 94.031 328.45 C 94.031 331.829 93.568 335.083 93.568 337.735 C 93.31 348.283 96.114 358.672 101.636 367.652 C 103.032 370.661 106.054 372.586 109.374 372.559 C 114.128 372.559 117.997 368.717 118.037 363.936 C 118.037 347.82 128.816 331.565 138.736 319.76 C 143.206 346.471 151.585 372.374 163.601 396.644 C 167.496 404.044 171.913 411.16 176.827 417.938 L 172.859 423.903 C 172.297 424.743 171.933 425.695 171.801 426.694 C 171.331 427.024 170.783 427.21 170.214 427.223 C 166.709 427.223 159.567 422.646 149.978 409.513 C 143.021 398.608 138.782 386.182 137.611 373.293 C 137.406 367.884 131.441 364.723 126.872 367.599 C 125.106 368.717 123.929 370.555 123.658 372.625 C 119.888 395.844 130.602 432.996 155.202 454.951 C 171.946 470.571 193.201 480.471 215.91 483.209 C 220.123 483.566 223.714 480.16 223.581 475.915 C 223.581 475.915 223.581 475.452 223.581 475.181 L 222.986 469.745 C 222.689 466.729 220.506 464.243 217.563 463.575 C 209.059 461.564 201.024 457.94 193.889 452.895 C 190.516 450.111 188.797 448.649 188.797 446.262 C 189.074 444.165 189.894 442.175 191.177 440.489 C 192.354 439.993 193.366 439.166 194.087 438.101 C 209.145 452.63 227.761 462.927 248.05 467.953 L 248.38 467.953 C 249.505 468.23 250.688 468.23 251.819 467.953 L 252.15 467.953 C 271.109 463.191 288.601 453.801 303.07 440.621 C 303.599 440.621 304.195 440.621 304.724 440.621 L 307.7 440.224 L 322.05 461.518 C 323.373 463.509 325.614 464.686 328.002 464.633 L 343.807 483.143 C 347.226 487.329 353.885 486.231 355.783 481.159 C 356.504 479.241 356.352 477.112 355.38 475.313 L 344.138 453.754 C 345.136 451.599 344.911 449.066 343.542 447.121 L 333.887 432.996 C 340.5 425.364 350.486 406.458 353.727 352.793 C 356.894 341.874 359.52 330.804 361.596 319.628 C 371.582 331.432 382.163 347.82 382.295 364.068 C 382.262 364.451 382.262 364.822 382.295 365.199 C 383.432 371.792 391.256 374.669 396.381 370.383 C 397.141 369.742 397.789 368.981 398.299 368.115 C 404.045 359.002 406.968 348.382 406.697 337.602 C 406.697 334.818 406.697 331.697 406.168 328.318 C 409.098 330.606 411.379 333.621 412.781 337.073 C 415.565 343.151 423.865 343.918 427.72 338.455 C 428.758 336.987 429.314 335.228 429.314 333.423 C 428.739 322.141 425.544 311.15 419.989 301.316 L 446.442 274.778 C 449.358 271.769 450.952 267.702 450.873 263.503 Z" style="fill: rgb(255, 255, 255);"/>
  <path class="cls-3" d="M 351.412 242.672 C 347.444 240.866 343.43 239.16 339.376 237.566 C 341.889 255.614 345.592 278.627 347.113 297.269 C 349.501 279.163 350.936 260.937 351.412 242.672 Z" style="fill: rgb(227, 0, 15);"/>
  <path class="cls-3" d="M 312.726 228.877 C 309.022 227.885 305.319 227.019 301.616 226.225 C 273.98 256.744 226.147 256.744 198.518 226.225 C 184.478 229.227 170.736 233.466 157.451 238.896 C 157.457 239.114 157.457 239.339 157.451 239.557 L 194.682 239.557 L 157.847 244.266 C 157.768 244.755 157.656 245.251 157.517 245.727 L 219.68 289.373 L 155.004 249.576 L 153.813 250.568 L 167.37 295.477 L 149.383 252.228 L 148.589 252.228 C 153.615 363.605 189.127 433.525 249.505 450.044 C 278.271 442.148 301.285 422.184 318.214 391.466 C 323.22 368.333 325.442 344.678 324.827 321.017 C 325.29 278.296 320.463 243.869 312.726 228.877 Z M 313.651 351.999 C 299.592 353.95 285.44 355.187 271.262 355.709 L 271.262 398.231 C 264.648 398.231 257.308 398.701 250.1 398.701 C 242.891 398.701 235.749 398.701 228.872 398.231 L 228.872 355.709 C 214.687 355.18 200.541 353.943 186.482 351.999 L 186.482 309.411 C 200.535 311.362 214.687 312.598 228.872 313.121 L 228.872 270.605 C 235.485 270.605 242.891 271.068 250.1 271.068 C 257.308 271.068 264.384 271.068 271.262 270.605 L 271.262 313.121 C 285.44 312.598 299.592 311.362 313.651 309.411 Z" style="fill: rgb(227, 0, 15);"/>
  <path class="cls-4" d="M 374.227 187.148 C 366.953 193.788 377.798 201.016 374.227 204.329 C 372.64 205.791 370.854 204.329 369.333 202.808 C 367.614 200.923 366.384 198.649 365.762 196.175 L 360.935 199.687 C 362.092 202.094 363.58 204.329 365.366 206.32 C 369.333 210.764 374.624 213.885 379.782 209.243 C 386.99 202.61 376.343 195.309 379.782 192.393 C 381.501 190.865 383.618 192.988 384.808 194.317 C 386.177 195.825 387.215 197.61 387.85 199.555 L 392.281 196.241 C 391.302 194.112 390.012 192.141 388.445 190.402 C 384.543 186.421 379.055 182.903 374.227 187.148 Z" style="fill: rgb(26, 26, 24);"/>
  <path d="M 436.721 248.908 C 426.014 238.294 413.932 229.168 400.812 221.781 L 407.888 214.679 C 411.657 210.903 410.93 203.602 406.036 196.969 C 396.189 183.729 384.702 171.8 371.846 161.477 L 388.577 136.605 L 387.123 133.55 L 399.952 108.942 L 381.898 130.104 L 378.658 130.104 L 362.456 154.381 C 341.942 139.865 318.843 129.436 294.407 123.67 C 288.125 118.63 281.036 114.702 273.444 112.057 C 272.254 107.719 270.845 103.447 269.212 99.254 C 270.627 96.126 272.677 93.322 275.229 91.027 C 278.708 87.82 281.399 83.846 283.099 79.422 C 284.435 75.97 285.129 72.312 285.149 68.609 C 285.42 63.577 283.403 58.696 279.66 55.343 L 278.338 54.345 L 277.544 55.806 C 273.1 64.946 266.414 72.802 258.102 78.628 C 255.655 80.215 253.605 79.289 249.505 77.166 C 247.699 76.194 245.848 75.335 243.95 74.581 C 242.164 59.655 242.561 40.881 247.587 31.86 C 252.613 22.834 260.813 23.032 265.376 31.86 L 265.376 31.86 C 265.925 32.78 267.261 32.753 267.776 31.821 C 267.896 31.602 267.955 31.364 267.955 31.126 L 267.955 31.126 L 267.955 30.796 C 266.017 22.893 257.52 18.581 250.034 21.709 C 246.251 23.647 243.209 26.762 241.37 30.597 C 234.427 20.38 228.144 19.256 224.11 24.89 C 220.076 30.531 221.267 46.317 226.689 69.998 C 221.822 66.314 217.94 61.487 215.381 55.939 C 209.495 62.109 210.95 75.837 221.068 82.47 L 218.489 84.593 C 214.019 86.722 211.003 91.061 210.554 96.007 L 184.101 111.66 C 181.251 113.624 179.512 116.818 179.406 120.284 C 179.366 120.925 179.366 121.567 179.406 122.208 C 179.28 124.86 179.995 127.485 181.456 129.701 L 181.456 130.765 L 181.456 130.765 C 165.896 136.737 151.162 144.679 137.611 154.381 L 135.032 150.532 C 128.386 140.672 123.175 129.906 119.558 118.558 C 111.192 117.195 103.217 122.605 101.372 130.898 C 110.531 138.556 118.546 147.49 125.179 157.429 L 128.089 161.748 C 115.246 172.064 103.779 183.994 93.965 197.233 C 89.071 203.866 88.344 211.167 92.113 214.943 L 99.189 222.046 C 86.063 229.439 73.987 238.565 63.281 249.172 C 56.138 256.407 54.022 265.56 58.585 270.136 L 88.476 300.186 C 82.181 310.191 78.603 321.672 78.094 333.489 C 78.054 334.388 78.775 335.149 79.681 335.149 C 80.336 335.129 80.911 334.712 81.136 334.084 C 84.376 327.451 87.352 323.073 103.091 314.186 C 101.656 322.002 100.836 329.918 100.644 337.867 C 100.36 347.39 102.946 356.774 108.051 364.802 C 108.302 365.371 108.884 365.715 109.506 365.662 C 110.405 365.701 111.159 364.981 111.159 364.068 C 111.159 340.188 130.998 316.903 142.968 305.033 L 143.431 304.497 C 147.306 335.433 156.24 365.51 169.883 393.523 C 174.301 402.113 179.452 410.307 185.292 418.004 L 178.679 427.95 L 179.208 429.147 C 170.544 441.289 156.789 430.741 144.357 413.825 C 136.738 401.729 132.195 387.954 131.131 373.69 C 127.824 393.589 137.744 429.081 160.36 449.575 C 176.053 464.177 195.925 473.461 217.167 476.113 L 216.638 470.671 C 207.108 468.369 198.121 464.223 190.185 458.469 C 180.861 450.706 180.001 445.997 187.672 434.517 L 188.995 434.517 L 193.756 427.421 C 208.722 444.113 228.316 455.93 250.034 461.386 L 250.695 461.386 C 269.674 456.697 287.093 447.082 301.219 433.525 C 302.436 433.895 303.705 434.1 304.988 434.12 C 306.033 434.114 307.078 433.981 308.096 433.723 C 309.135 433.981 310.199 434.114 311.271 434.12 L 311.866 434.12 L 328.068 458.132 L 331.308 458.132 L 349.23 479.096 L 336.004 454.488 L 337.458 451.433 L 324.232 431.997 C 339.376 422.382 344.667 382.71 346.386 351.933 C 350.916 336.293 354.342 320.356 356.636 304.233 L 357.099 304.835 C 369.069 316.639 388.908 340.122 389.305 364.002 C 389.431 364.795 390.092 365.377 390.892 365.397 C 391.461 365.404 391.99 365.1 392.281 364.604 C 397.426 356.562 400.031 347.152 399.754 337.602 C 399.568 329.653 398.748 321.738 397.307 313.921 C 413.046 323.007 416.022 327.187 419.262 333.82 C 419.857 334.951 421.444 335.003 422.119 333.919 C 422.264 333.687 422.35 333.43 422.37 333.158 C 421.623 321.341 417.867 309.927 411.459 299.987 L 441.35 269.937 C 445.913 265.361 443.863 256.143 436.721 248.908 Z M 300.491 127.849 C 341.757 139.224 378.056 164.089 403.655 198.496 C 407.623 203.866 408.483 209.706 405.771 212.424 L 405.771 212.424 C 405.804 211.914 405.804 211.412 405.771 210.903 C 405.533 207.484 404.317 204.21 402.266 201.479 L 402.266 201.479 C 402.266 201.479 401.804 201.479 401.804 201.479 C 401.671 201.605 401.671 201.816 401.804 201.942 C 403.92 205.592 405.705 212.159 403.126 215.214 L 402.333 215.942 C 402.366 215.433 402.366 214.923 402.333 214.414 C 402.101 211.002 400.884 207.728 398.828 204.997 L 398.828 204.997 C 398.828 204.997 398.365 204.997 398.365 204.997 C 398.365 204.997 398.365 205.46 398.365 205.46 C 400.481 209.11 402.266 215.677 399.687 218.726 L 398.894 219.46 C 398.933 218.944 398.933 218.442 398.894 217.932 C 398.676 214.52 397.479 211.253 395.455 208.509 L 395.455 208.509 C 395.323 208.383 395.118 208.383 394.992 208.509 C 394.86 208.634 394.86 208.853 394.992 208.978 C 397.108 212.622 398.894 219.189 396.315 222.244 L 395.521 222.971 C 395.554 222.462 395.554 221.96 395.521 221.444 C 395.283 218.031 394.066 214.758 392.016 212.027 L 392.016 212.027 C 392.016 212.027 391.553 212.027 391.553 212.027 C 391.421 212.152 391.421 212.364 391.553 212.49 C 393.669 216.14 395.455 222.707 392.876 225.762 L 392.148 226.49 C 392.182 225.98 392.182 225.471 392.148 224.962 C 392.01 221.536 390.885 218.217 388.908 215.413 L 388.908 215.413 C 388.703 215.254 388.412 215.373 388.372 215.624 C 388.366 215.664 388.366 215.704 388.379 215.743 C 390.495 219.394 392.281 225.961 389.702 229.009 L 388.974 229.737 C 389.007 229.227 389.007 228.725 388.974 228.216 C 388.736 224.797 387.519 221.53 385.469 218.792 L 385.469 218.792 C 385.337 218.666 385.132 218.666 385.006 218.792 C 384.907 218.931 384.907 219.116 385.006 219.255 C 387.123 222.905 388.908 229.472 386.329 232.527 L 385.602 233.255 C 385.635 232.746 385.635 232.243 385.602 231.727 C 385.363 228.315 384.147 225.041 382.097 222.31 L 382.097 222.31 C 382.097 222.31 381.7 222.31 381.7 222.31 C 381.7 222.31 381.7 222.773 381.7 222.773 C 383.816 226.423 385.602 232.99 383.022 236.039 L 382.295 236.773 C 382.328 236.257 382.328 235.755 382.295 235.245 C 382.057 231.826 380.84 228.559 378.79 225.828 L 378.79 225.828 C 378.658 225.696 378.453 225.696 378.327 225.828 C 378.195 225.954 378.195 226.166 378.327 226.291 C 380.443 229.935 382.229 236.508 379.65 239.557 L 379.65 239.557 C 379.504 235.993 378.36 232.547 376.343 229.604 C 362.476 208.72 343.695 191.579 321.653 179.722 L 321.653 179.722 C 321.633 176.799 321.435 173.869 321.058 170.966 C 322.83 173.215 325.092 175.027 327.671 176.27 C 330.045 177.54 332.578 178.472 335.21 179.061 L 337.525 173.949 C 335.217 173.717 332.975 173.069 330.911 172.024 C 325.006 169.115 324.45 160.881 329.919 157.204 C 332.459 155.505 335.706 155.28 338.45 156.636 C 340.613 157.806 342.438 159.512 343.741 161.609 L 346.981 156.768 C 345.037 154.784 342.808 153.104 340.368 151.795 C 333.563 147.1 324.186 149.54 320.529 156.966 C 319.954 158.064 319.511 159.221 319.206 160.418 C 315.576 147.913 308.599 136.651 299.036 127.849 Z M 355.843 230.206 L 363.051 234.386 C 367.006 237.441 371.714 239.365 376.674 239.954 C 376.707 240.331 376.707 240.708 376.674 241.085 C 371.707 242.149 366.529 240.959 362.522 237.831 C 362.522 237.831 362.522 237.17 362.522 236.905 L 362.522 235.973 L 361.662 235.576 C 353.872 231.813 345.91 228.454 337.789 225.491 L 355.314 207.913 C 361.206 213.925 366.576 220.432 371.383 227.349 L 371.053 227.349 C 368.368 225.775 365.584 224.373 362.72 223.17 L 362.72 223.17 C 362.601 223.084 362.436 223.084 362.324 223.17 C 362.191 223.295 362.191 223.507 362.324 223.639 L 369.532 227.812 L 372.971 229.803 L 373.698 230.801 C 374.452 231.8 375.113 232.865 375.682 233.982 C 372.944 232.964 370.312 231.701 367.812 230.206 C 365.108 228.626 362.297 227.23 359.414 226.027 L 359.414 226.027 C 359.414 226.027 359.017 226.027 359.017 226.027 C 358.885 226.152 358.885 226.364 359.017 226.49 L 366.225 230.669 C 369.307 232.759 372.64 234.458 376.145 235.708 C 376.343 236.449 376.475 237.203 376.542 237.963 C 372.164 237.481 367.984 235.9 364.374 233.387 C 361.669 231.8 358.865 230.405 355.975 229.208 L 355.975 229.208 C 355.856 229.122 355.691 229.122 355.578 229.208 C 355.195 229.307 355.062 229.79 355.347 230.074 C 355.472 230.2 355.664 230.252 355.843 230.206 Z M 375.682 243.009 L 375.351 243.472 C 373.037 245.793 368.408 245.463 363.514 242.672 L 362.39 242.01 C 362.39 241.151 362.39 240.218 362.39 239.359 C 366.166 242.275 370.94 243.584 375.682 243.009 Z M 398.894 278.693 C 401.929 281.696 405.275 284.367 408.88 286.655 C 409.534 287.859 410.063 289.122 410.467 290.438 C 404.898 288.593 399.8 285.564 395.521 281.55 C 395.389 281.424 395.184 281.424 395.058 281.55 C 394.926 281.676 394.926 281.887 395.058 282.013 C 399.191 286.629 404.455 290.081 410.334 292.032 C 410.381 292.627 410.381 293.222 410.334 293.817 C 404.846 294.684 399.423 290.835 392.016 284.863 C 391.884 284.738 391.679 284.738 391.553 284.863 C 391.421 284.989 391.421 285.2 391.553 285.326 C 397.174 290.504 403.457 296.277 410.136 295.543 L 410.136 296.277 C 403.523 299.458 397.637 295.213 388.842 288.183 C 388.842 288.183 388.379 288.183 388.379 288.183 C 388.247 288.309 388.247 288.52 388.379 288.646 C 394.132 293.95 401.076 300.384 408.218 298.599 C 401.605 303.968 393.14 297.402 389.636 294.221 C 384.213 289.552 378.44 285.319 372.375 281.55 C 368.943 279.229 364.863 278.065 360.736 278.23 L 377.6 261.248 C 387.281 266.631 396.182 273.33 404.052 281.147 C 404.905 282.02 405.705 282.952 406.433 283.937 C 403.708 282.125 401.083 280.175 398.563 278.098 C 398.563 278.098 398.1 278.098 398.1 278.098 C 398.1 278.098 398.629 278.693 398.629 278.693 Z M 360.604 274.851 C 361.199 267.815 361.662 260.587 361.993 253.154 C 366.688 255.276 371.251 257.465 375.219 259.786 Z M 342.617 306.957 L 341.029 306.356 C 341.029 304.901 341.029 303.373 341.029 301.846 L 341.492 301.846 C 342.815 302.308 344.402 302.844 344.468 303.572 L 344.468 303.572 C 344.468 304.967 344.468 306.29 344.468 307.619 Z M 344.534 311.468 L 344.534 311.468 C 344.534 312.856 344.534 314.186 344.534 315.581 L 342.683 314.781 L 341.096 314.119 C 341.096 312.658 341.096 311.137 341.096 309.543 L 341.558 309.543 C 343.013 310.469 344.601 310.998 344.601 311.732 Z M 342.617 299.458 L 341.096 298.863 C 341.096 297.402 341.096 295.874 341.096 294.287 L 341.558 294.287 C 342.881 294.75 344.468 295.279 344.534 295.874 L 344.534 295.874 C 344.534 297.203 344.534 298.599 344.534 299.987 Z M 342.22 291.761 L 340.699 291.232 C 340.699 289.704 340.699 288.183 340.699 286.655 L 341.162 286.655 C 342.484 287.052 344.138 287.581 344.204 288.249 L 344.204 288.249 C 344.204 289.638 344.204 291.033 344.204 292.429 Z M 341.691 284.003 L 340.17 283.474 C 340.17 281.947 340.17 280.419 339.773 278.892 L 340.17 278.892 C 341.426 279.229 343.146 279.758 343.212 280.353 L 343.212 280.353 C 343.212 281.748 343.212 283.137 343.212 284.533 Z M 340.963 276.24 L 339.508 275.777 L 339.046 271.201 L 339.442 271.201 C 340.699 271.201 342.484 271.994 342.55 272.589 L 342.55 272.589 C 342.55 273.965 342.683 275.334 342.947 276.703 Z M 340.17 268.549 L 338.715 268.145 C 338.715 266.624 338.318 265.031 338.12 263.503 L 338.45 263.503 C 339.773 263.503 341.492 264.237 341.558 264.832 L 341.558 264.832 L 342.088 269.078 Z M 321.19 407.853 C 320.066 406.987 318.677 405.995 318.876 405.333 L 318.876 405.333 C 319.206 404.07 319.537 402.814 319.868 401.419 L 321.521 402.675 C 322.579 403.409 323.968 404.335 323.902 404.937 C 323.835 405.532 323.108 407.787 322.711 409.11 Z M 321.653 412.297 C 321.124 413.759 320.595 415.213 320 416.543 L 318.479 415.147 C 317.487 414.288 316.297 413.289 316.495 412.694 C 316.693 412.099 317.355 410.174 317.818 408.845 L 319.471 410.174 C 320.198 410.637 321.389 411.57 321.455 412.099 Z M 322.777 399.825 C 321.653 399.097 320.264 398.099 320.331 397.437 C 320.397 396.776 320.926 394.786 321.19 393.456 L 322.91 394.653 C 323.968 395.315 325.489 396.241 325.423 396.842 C 325.356 397.437 324.761 399.693 324.431 401.088 Z M 245.074 246.058 L 238.461 246.058 L 256.316 214.811 L 262.929 214.811 Z M 261.673 246.058 L 255.06 246.058 L 251.753 240.218 L 255.06 234.452 Z M 111.556 288.315 C 111.424 288.19 111.219 288.19 111.093 288.315 C 102.298 295.345 96.28 299.59 89.799 296.41 C 89.779 296.165 89.779 295.92 89.799 295.676 C 96.412 296.41 103.025 290.636 108.382 285.465 C 108.507 285.333 108.507 285.121 108.382 284.995 C 108.249 284.87 108.044 284.87 107.919 284.995 C 100.512 290.967 95.023 294.882 89.601 293.95 C 89.548 293.354 89.548 292.759 89.601 292.164 C 95.361 290.14 100.505 286.669 104.546 282.079 C 104.546 282.079 104.546 281.616 104.546 281.616 C 104.546 281.616 104.083 281.616 104.083 281.616 C 99.91 285.571 94.95 288.6 89.534 290.504 C 89.944 289.188 90.5 287.918 91.188 286.721 C 94.785 284.433 98.131 281.762 101.173 278.759 C 101.173 278.759 101.173 278.296 101.173 278.296 C 101.041 278.171 100.836 278.171 100.71 278.296 C 98.191 280.38 95.566 282.33 92.841 284.136 C 93.562 283.144 94.355 282.218 95.222 281.352 C 103.078 273.528 111.979 266.829 121.674 261.446 L 138.603 278.429 C 134.464 278.31 130.397 279.5 126.964 281.815 C 120.9 285.577 115.127 289.79 109.704 294.419 C 106.199 297.666 97.536 304.233 91.122 298.863 C 98.33 300.589 105.273 294.221 110.961 288.91 C 111.212 289.142 111.622 289.01 111.688 288.672 C 111.721 288.514 111.668 288.355 111.556 288.249 Z M 124.782 259.925 C 129.081 257.597 133.644 255.342 138.339 253.286 C 138.643 260.673 139.106 267.901 139.728 274.983 Z M 138.67 235.642 L 137.81 236.039 L 137.81 236.971 C 137.81 236.971 137.81 237.566 137.81 237.897 C 133.796 241.019 128.618 242.202 123.658 241.151 C 123.631 240.774 123.631 240.397 123.658 240.02 C 128.618 239.438 133.326 237.507 137.281 234.452 L 144.489 230.272 C 144.615 230.147 144.615 229.928 144.489 229.803 C 144.357 229.677 144.152 229.677 144.026 229.803 L 144.026 229.803 C 141.136 231.006 138.326 232.408 135.627 233.982 C 132.023 236.522 127.831 238.096 123.459 238.565 C 123.519 237.798 123.651 237.044 123.856 236.303 C 127.361 235.054 130.694 233.361 133.776 231.264 L 140.984 227.085 C 141.11 226.959 141.11 226.748 140.984 226.622 C 140.984 226.622 140.587 226.622 140.587 226.622 L 140.587 226.622 C 137.697 227.819 134.887 229.221 132.189 230.801 C 129.682 232.084 127.07 233.156 124.385 233.982 C 124.881 232.752 125.503 231.575 126.237 230.471 L 126.898 229.472 L 130.337 227.482 L 137.545 223.302 C 137.671 223.176 137.671 222.965 137.545 222.839 C 137.426 222.753 137.261 222.753 137.148 222.839 L 137.148 222.839 C 134.252 224.043 131.448 225.432 128.75 227.019 L 128.419 227.019 C 133.28 220.088 138.722 213.588 144.687 207.583 L 162.212 225.16 C 154.217 228.235 146.38 231.707 138.736 235.576 Z M 138.008 242.275 L 136.884 242.943 C 132.056 245.793 127.427 246.124 125.047 243.736 L 124.716 243.274 C 129.438 243.816 134.186 242.48 137.942 239.557 C 138.008 240.218 138.008 241.085 138.008 241.944 Z M 147.068 206.121 C 149.25 203.999 151.565 201.942 153.681 199.951 L 169.42 223.302 L 165.386 224.697 Z M 163.336 192.856 C 168.303 189.238 173.494 185.938 178.877 182.969 L 178.877 182.969 C 179.38 195.375 183.123 207.431 189.722 217.932 L 181.39 220.121 Z M 222.193 149.408 C 222.193 151.332 222.193 154.05 221.664 157.363 C 220.936 158.613 220.07 159.77 219.084 160.815 L 218.159 161.609 L 217.365 159.889 L 216.571 158.494 L 215.249 159.288 C 214.125 159.975 213.06 160.749 212.075 161.609 L 210.421 162.872 C 210.587 161.285 210.587 159.684 210.421 158.097 L 210.95 157.231 C 214.422 155.677 217.451 153.256 219.746 150.201 Z M 222.193 146.22 L 222.193 145.823 L 222.193 145.823 C 222.193 145.823 222.193 145.823 222.193 145.823 Z M 210.355 204.666 C 212.339 206.763 213.834 209.276 214.72 212.027 C 212.286 212.172 209.899 212.708 207.644 213.621 C 206.341 212.814 205.144 211.855 204.073 210.764 C 200.978 207.543 199.087 203.35 198.716 198.893 C 203.127 199.449 207.227 201.486 210.355 204.666 Z M 197.129 192.393 C 196.276 191.11 195.588 189.734 195.079 188.279 C 194.113 185.561 193.776 182.658 194.087 179.788 C 194.325 178.241 194.748 176.726 195.344 175.278 C 199.067 177.632 201.89 181.19 203.345 185.363 C 204.284 188.088 204.622 190.984 204.337 193.854 L 204.337 193.854 C 202.029 192.975 199.589 192.479 197.129 192.393 Z M 224.772 218.924 C 228.852 220.578 232.271 223.534 234.493 227.349 C 225.81 230.299 216.267 226.655 211.744 218.66 C 215.976 217.397 220.519 217.582 224.639 219.189 Z M 224.176 213.224 C 223.032 212.787 221.862 212.457 220.672 212.225 C 218.674 209.229 217.537 205.744 217.365 202.14 C 226.478 203.661 233.243 211.451 233.501 220.716 C 231.067 217.516 227.82 215.009 224.11 213.488 Z M 215.646 195.64 L 214.058 195.64 L 214.058 197.233 C 213.946 198.563 213.946 199.885 214.058 201.214 C 214.058 201.214 214.058 201.545 214.058 201.743 C 213.424 200.851 212.716 200.004 211.942 199.224 C 210.891 198.166 209.74 197.2 208.504 196.374 C 208.14 194.674 208.001 192.935 208.107 191.196 C 208.107 191.196 208.107 190.865 208.107 190.667 C 208.107 190.468 208.107 189.476 208.107 188.941 C 208.51 187.228 209.132 185.588 209.958 184.034 C 213.463 186.745 215.937 190.587 216.968 194.912 C 216.968 195.309 216.968 195.706 216.968 196.109 Z M 215.646 147.02 C 214.151 149.48 212.114 151.57 209.694 153.118 C 208.933 150.737 207.789 148.502 206.321 146.485 C 206.771 145.05 207.393 143.668 208.173 142.371 L 208.173 141.908 C 211.347 142.709 214.191 143.37 216.836 143.833 C 216.426 145.01 215.923 146.134 215.315 147.219 Z M 209.694 167.448 C 210.679 166.238 211.81 165.14 213.067 164.201 C 214.627 167.686 215.156 171.561 214.588 175.344 C 214.588 175.939 214.588 176.534 214.191 177.136 C 213.794 177.731 214.191 177.864 213.794 178.26 L 212.273 177.136 L 210.95 176.27 L 210.157 177.665 C 209.502 178.809 208.947 180.006 208.504 181.25 L 207.974 182.308 C 207.974 181.911 207.974 181.514 207.974 181.117 C 207.399 179.491 206.645 177.93 205.726 176.468 C 205.726 175.939 205.726 175.344 206.057 174.815 L 206.057 174.815 C 207.545 172.633 208.642 170.206 209.297 167.647 Z M 205.462 164.796 L 205.462 164.796 C 205.144 167.673 204.165 170.45 202.618 172.891 C 200.932 171.099 198.961 169.597 196.798 168.447 C 196.613 166.926 196.613 165.385 196.798 163.864 L 196.798 163.864 C 197.301 159.426 199.285 155.293 202.419 152.126 C 204.727 155.994 205.66 160.531 205.065 164.995 Z M 195.344 157.231 C 194.471 155.922 193.472 154.698 192.368 153.587 C 192.209 152.152 192.209 150.704 192.368 149.275 L 192.368 149.275 C 192.645 145.625 193.955 142.127 196.137 139.19 L 198.915 139.653 C 200.475 142.616 201.249 145.923 201.163 149.275 C 198.491 151.478 196.362 154.268 194.947 157.429 Z M 193.624 166.324 C 193.624 167.607 193.737 168.896 193.955 170.166 C 193.611 171.013 193.327 171.879 193.095 172.758 C 192.52 174.101 192.077 175.503 191.772 176.938 C 190.404 175.82 188.916 174.861 187.342 174.081 C 185.523 170.86 184.716 167.157 185.027 163.467 C 185.192 161.179 185.748 158.93 186.68 156.834 C 189.769 159.314 192.05 162.667 193.227 166.456 Z M 191.376 184.166 C 191.548 185.839 191.898 187.486 192.434 189.073 C 193.155 191.156 194.18 193.12 195.476 194.912 C 195.476 195.507 195.476 196.109 195.476 196.704 C 193.379 195.745 191.144 195.117 188.863 194.846 C 187.765 193.861 186.786 192.743 185.953 191.526 C 183.473 187.869 182.289 183.478 182.58 179.061 L 182.58 179.061 C 185.794 180.053 188.711 181.858 191.045 184.298 Z M 186.548 201.082 C 190.093 200.95 193.611 201.77 196.732 203.47 C 197.757 206.961 199.622 210.149 202.155 212.754 L 203.081 213.621 C 201.084 213.508 199.08 213.667 197.129 214.083 C 195.767 213.528 194.484 212.814 193.293 211.961 C 189.789 209.289 187.289 205.5 186.217 201.214 Z M 209.231 220.055 C 210.858 223.005 213.113 225.564 215.844 227.548 C 214.363 228.064 212.941 228.725 211.612 229.538 C 210.17 229.439 208.748 229.175 207.379 228.745 C 203.14 227.329 199.516 224.499 197.129 220.716 C 200.885 219.367 204.966 219.176 208.834 220.187 Z M 225.036 231.264 C 226.57 231.423 228.124 231.423 229.665 231.264 C 232.674 231.899 235.498 233.222 237.932 235.113 C 230.995 241.098 220.784 241.263 213.662 235.51 C 216.843 233.05 220.691 231.615 224.706 231.397 Z M 237.601 214.613 L 244.214 214.613 L 248.711 222.575 L 245.404 228.348 Z M 271.129 231.595 C 272.664 231.754 274.218 231.754 275.758 231.595 C 279.925 231.859 283.906 233.44 287.133 236.105 C 280.017 241.878 269.813 241.739 262.863 235.774 C 265.158 233.87 267.843 232.494 270.733 231.727 Z M 336.334 306.957 L 334.813 306.356 C 334.813 304.901 334.813 303.373 334.813 301.846 L 335.276 301.846 C 336.599 302.308 338.252 302.844 338.252 303.572 L 338.252 303.572 L 338.252 307.619 Z M 338.252 311.468 L 338.252 311.468 C 338.252 312.856 338.252 314.186 338.252 315.581 L 336.4 314.781 L 334.813 314.119 C 334.813 312.658 334.813 311.137 334.813 309.543 L 335.276 309.543 C 336.731 310.469 338.318 310.998 338.318 311.732 Z M 336.004 299.458 L 334.483 298.863 C 334.483 297.402 334.483 295.874 334.483 294.287 L 334.945 294.287 C 336.268 294.75 337.855 295.279 337.921 295.874 L 337.921 295.874 C 337.921 297.203 337.921 298.599 337.921 299.987 Z M 336.004 291.761 L 334.483 291.232 C 334.483 289.704 334.483 288.183 334.483 286.655 L 334.945 286.655 C 336.268 287.052 337.921 287.581 337.921 288.249 L 337.921 288.249 C 337.921 289.618 337.921 291.013 337.921 292.429 Z M 335.474 284.003 L 333.953 283.474 C 333.953 281.947 333.953 280.419 333.623 278.892 L 334.02 278.892 C 335.276 279.229 336.995 279.758 337.062 280.353 L 337.062 280.353 L 337.062 284.533 Z M 334.813 276.24 L 333.358 275.777 L 332.895 271.201 L 333.292 271.201 C 334.549 271.201 336.334 271.994 336.334 272.589 L 336.334 272.589 C 336.334 273.985 336.334 275.314 336.731 276.703 Z M 334.02 268.549 L 332.565 268.145 L 331.97 263.503 L 331.97 263.503 C 333.358 263.503 335.012 264.237 335.144 264.832 L 335.144 264.832 C 335.144 266.221 335.474 267.616 335.673 269.078 Z M 330.052 306.957 C 328.663 306.422 327.142 305.893 327.076 305.165 L 327.076 305.165 C 327.076 303.836 327.076 302.58 327.076 301.25 L 328.928 301.978 C 330.25 302.441 331.903 302.976 331.903 303.704 L 331.903 303.704 C 331.903 305.099 331.903 306.422 331.903 307.751 Z M 331.97 311.468 L 331.97 311.468 C 331.97 312.856 331.97 314.186 331.97 315.581 L 330.118 314.781 C 328.795 314.252 327.208 313.656 327.142 312.922 C 327.076 312.195 327.142 310.271 327.142 308.948 L 328.994 309.742 C 330.449 310.469 331.97 310.998 331.97 311.732 Z M 329.721 299.194 C 328.398 298.731 326.811 298.195 326.745 297.468 L 326.745 297.468 C 326.745 296.145 326.745 294.816 326.745 293.487 L 328.663 294.221 C 329.986 294.684 331.573 295.213 331.639 295.808 L 331.639 295.808 L 331.639 299.921 Z M 329.39 291.761 C 328.068 291.298 326.415 290.769 326.348 290.107 L 326.348 290.107 L 326.348 286.126 L 328.266 286.788 C 329.589 287.184 331.242 287.72 331.242 288.381 L 331.242 288.381 C 331.242 289.757 331.242 291.146 331.242 292.561 Z M 328.861 284.003 C 327.539 283.607 325.819 283.071 325.819 282.344 L 325.819 282.344 C 325.819 281.014 325.819 279.692 325.489 278.363 L 327.407 278.958 C 328.663 279.295 330.382 279.824 330.449 280.419 L 330.449 280.419 C 330.449 281.815 330.449 283.203 330.779 284.599 Z M 325.555 363.076 L 327.34 364.068 C 328.597 364.67 330.118 365.463 330.052 366.125 L 330.052 366.125 C 330.052 367.52 330.052 368.915 329.655 370.238 L 327.869 369.18 C 326.679 368.578 325.224 367.784 325.092 367.123 C 324.96 366.455 325.423 364.405 325.555 363.076 Z M 328.597 361.416 C 327.407 360.821 325.886 360.087 325.819 359.359 C 325.753 358.632 325.819 356.641 325.819 355.246 L 327.539 356.112 C 329.258 356.906 330.449 357.501 330.316 358.301 L 330.316 358.301 C 330.316 359.69 330.316 361.019 330.316 362.415 Z M 329.39 353.388 C 328.134 352.793 326.679 352.131 326.745 351.463 L 326.745 351.463 C 326.745 350.141 326.745 348.745 326.745 347.423 L 328.332 348.15 C 330.449 349.01 331.308 349.546 331.242 350.405 L 331.242 350.405 C 331.242 351.735 331.242 353.057 331.242 354.386 Z M 329.39 345.498 C 327.936 344.897 326.811 344.368 326.811 343.772 L 326.811 343.772 C 326.811 342.443 326.811 341.187 326.811 339.857 L 328.663 340.783 C 329.919 341.319 331.44 342.046 331.44 342.642 L 331.44 342.642 C 331.44 343.905 331.44 345.234 331.44 346.49 Z M 329.986 338.131 C 328.663 337.602 327.142 336.875 327.076 336.141 C 327.01 335.413 327.076 333.489 327.076 332.16 L 328.795 332.96 C 330.515 333.687 331.705 334.217 331.705 334.951 L 331.705 334.951 C 331.705 336.273 331.705 337.669 331.705 338.998 Z M 329.986 330.308 C 328.663 329.773 327.208 329.111 327.208 328.384 L 327.208 328.384 C 327.208 327.055 327.208 325.725 327.208 324.469 L 328.994 325.262 C 330.316 325.791 331.903 326.393 331.903 327.187 L 331.903 327.187 C 331.903 328.516 331.903 329.839 331.903 331.234 Z M 329.986 322.544 C 328.663 322.015 327.142 321.414 327.142 320.686 L 327.142 320.686 C 327.142 319.357 327.142 318.1 327.142 316.771 L 329.06 317.571 C 330.316 318.034 331.97 318.696 331.97 319.357 L 331.97 319.357 C 331.97 319.959 331.97 320.554 331.97 321.215 C 331.97 321.883 331.97 322.677 331.97 323.404 Z M 332.366 260.653 L 330.978 260.322 C 330.978 258.947 330.779 257.551 330.382 256.143 L 330.713 256.143 C 332.102 256.143 333.755 256.672 333.887 257.399 L 333.887 257.399 C 333.887 258.596 334.284 259.853 334.416 261.116 Z M 331.242 253.352 L 329.853 253.352 C 329.853 251.963 329.324 250.568 329.126 249.245 L 329.39 249.245 C 330.647 249.245 332.432 249.708 332.565 250.303 C 332.697 250.898 333.028 252.757 333.226 254.086 Z M 329.919 246.124 L 328.531 246.124 C 328.531 244.596 327.869 243.141 327.539 241.68 L 327.539 241.68 C 328.861 241.68 330.647 242.209 330.911 242.811 L 331.771 246.719 Z M 320.463 216.603 L 318.677 217.205 L 318.28 217.205 C 317.646 216.213 316.958 215.267 316.23 214.348 C 316.449 213.912 316.74 213.508 317.09 213.158 C 318.439 214.169 319.643 215.38 320.661 216.735 Z M 319.339 211.498 L 320.727 211.895 L 320.727 212.357 L 320.727 212.357 Z M 322.447 219.394 C 323.306 220.73 324.08 222.132 324.761 223.567 L 322.844 223.567 L 321.587 223.567 C 320.992 222.376 320.397 221.179 319.801 220.121 C 321.322 219.526 322.381 219.189 322.777 219.46 Z M 322.447 214.546 C 322.678 214.117 322.969 213.713 323.306 213.356 C 324.589 214.275 325.747 215.373 326.745 216.603 L 324.96 217.205 L 324.563 217.205 C 324.001 216.312 323.406 215.452 322.777 214.613 Z M 326.348 227.151 C 326.877 228.546 327.473 230.074 328.002 231.595 L 326.084 231.198 L 324.563 231.198 C 324.034 229.604 323.439 228.083 322.844 226.622 C 324.497 226.556 326.15 226.622 326.547 227.349 Z M 325.555 233.784 C 326.944 233.784 328.729 234.319 329.126 234.981 L 330.184 238.763 L 328.134 238.36 L 326.745 238.36 C 326.348 236.905 325.952 235.51 325.555 234.114 Z M 330.845 230.669 C 330.316 229.075 329.721 227.548 329.126 226.093 C 330.581 226.093 332.234 226.093 332.631 226.886 C 333.028 227.68 333.755 229.803 334.284 231.33 L 332.366 230.934 Z M 329.39 223.567 L 328.134 223.567 C 327.539 222.376 327.01 221.179 326.348 220.121 C 327.671 219.658 328.663 219.321 328.994 219.592 C 329.84 220.935 330.614 222.33 331.308 223.772 Z M 324.431 210.301 C 322.308 208.905 319.828 208.138 317.289 208.112 L 316.164 208.112 C 315.549 208.118 314.947 208.231 314.379 208.443 C 318.274 200.11 320.516 191.103 320.992 181.911 L 320.992 181.911 C 326.368 184.874 331.56 188.18 336.533 191.797 Z M 314.247 191.526 C 313.413 192.75 312.435 193.867 311.337 194.846 C 309.049 195.124 306.82 195.745 304.724 196.704 C 304.724 196.109 304.724 195.507 304.724 194.912 C 305.993 193.12 306.992 191.156 307.7 189.073 C 308.262 187.492 308.639 185.839 308.824 184.166 C 311.178 181.739 314.114 179.96 317.355 178.995 L 317.355 178.995 C 317.798 183.491 316.7 188.008 314.247 191.797 Z M 314.643 211.762 L 314.643 212.225 L 314.643 212.225 L 314.643 212.225 L 314.643 211.895 Z M 314.643 169.835 C 314.253 171.244 313.698 172.606 312.99 173.883 C 311.403 174.663 309.922 175.622 308.559 176.739 C 308.242 175.331 307.799 173.949 307.237 172.626 C 306.999 171.747 306.714 170.88 306.377 170.034 C 306.595 168.764 306.708 167.475 306.708 166.192 C 308.037 162.449 310.457 159.188 313.651 156.834 C 314.577 158.93 315.139 161.179 315.305 163.467 C 315.51 165.689 315.324 167.937 314.776 170.1 Z M 308.03 153.521 C 306.906 154.619 305.907 155.849 305.054 157.165 C 303.771 154.136 301.854 151.425 299.433 149.209 C 295.631 145.81 296.914 139.561 301.748 137.954 C 306.582 136.353 311.337 140.599 310.305 145.599 C 310.014 146.994 309.287 148.257 308.229 149.209 L 308.229 149.209 C 308.354 150.73 308.315 152.271 308.096 153.786 Z M 305.98 179.524 C 306.483 183.954 305.405 188.418 302.938 192.128 C 300.465 192.26 298.025 192.796 295.73 193.715 L 295.73 193.715 C 294.93 186.309 298.421 179.094 304.724 175.146 C 305.345 176.627 305.795 178.188 306.046 179.788 Z M 301.417 198.629 C 301.053 203.106 299.162 207.325 296.061 210.565 C 294.989 211.663 293.792 212.615 292.49 213.422 C 290.228 212.51 287.841 211.974 285.414 211.828 C 286.3 209.077 287.788 206.564 289.778 204.468 C 292.946 201.347 297.066 199.383 301.483 198.893 Z M 292.754 181.051 C 292.754 181.448 292.754 181.845 292.754 182.242 L 292.291 181.183 C 291.822 179.94 291.246 178.737 290.572 177.599 L 289.778 176.204 L 288.456 177.07 L 286.935 178.194 C 286.935 177.798 286.935 177.467 286.538 177.07 C 286.141 176.673 286.538 175.873 286.141 175.278 C 285.546 171.495 286.075 167.613 287.662 164.135 C 288.899 165.087 290.029 166.178 291.035 167.382 C 291.894 169.961 293.217 172.368 294.936 174.478 L 294.936 174.478 C 294.936 175.013 294.936 175.543 295.333 176.138 C 294.275 177.751 293.429 179.491 292.82 181.316 Z M 289.646 183.835 C 290.453 185.389 291.048 187.036 291.431 188.742 C 291.458 189.318 291.458 189.893 291.431 190.468 C 291.431 190.468 291.431 190.468 291.431 190.931 C 291.531 192.67 291.398 194.41 291.035 196.109 C 289.785 196.929 288.634 197.888 287.596 198.959 C 286.822 199.766 286.115 200.633 285.48 201.545 C 285.48 201.545 285.48 201.214 285.48 201.016 C 285.599 199.687 285.599 198.364 285.48 197.035 L 285.48 195.441 L 283.893 195.441 L 281.975 195.441 C 281.975 195.044 281.975 194.648 281.975 194.251 C 283.37 190.104 286.088 186.54 289.712 184.1 Z M 283.099 202.411 C 282.927 206.009 281.783 209.494 279.792 212.49 C 274.568 213.429 269.873 216.233 266.566 220.386 C 267.128 211.22 274.032 203.708 283.099 202.411 Z M 275.692 219.123 C 279.971 217.608 284.633 217.608 288.918 219.123 C 284.17 227.21 274.31 230.682 265.574 227.349 C 267.849 223.633 271.295 220.756 275.362 219.189 Z M 284.488 227.349 C 287.206 225.365 289.461 222.806 291.101 219.857 C 295.036 218.924 299.169 219.222 302.938 220.716 C 300.491 224.426 296.887 227.197 292.688 228.612 C 291.286 229.049 289.844 229.313 288.389 229.406 C 287.159 228.593 285.85 227.905 284.488 227.349 Z M 302.938 214.083 C 301.133 213.7 299.288 213.548 297.449 213.621 L 298.375 212.754 C 300.881 210.142 302.72 206.955 303.732 203.47 C 306.846 201.77 310.365 200.95 313.916 201.082 C 312.818 205.407 310.299 209.243 306.774 211.961 C 305.577 212.814 304.294 213.528 302.938 214.083 Z M 312.329 214.083 C 313.083 214.758 313.79 215.499 314.445 216.272 L 312.593 216.868 L 311.337 217.337 L 309.683 216.669 C 310.57 216.001 311.436 215.3 312.263 214.546 Z M 312.329 219.923 L 313.321 219.592 C 314.709 219.057 315.768 218.726 316.098 218.99 C 316.945 220.339 317.718 221.735 318.413 223.17 L 316.429 223.17 C 314.974 223.17 313.255 223.17 312.726 222.376 L 311.734 220.849 Z M 316.363 225.961 C 317.818 225.961 319.603 225.961 320.066 226.754 C 320.529 227.548 321.19 229.67 321.653 231.198 L 319.735 230.801 C 318.499 230.715 317.302 230.358 316.23 229.737 C 315.701 228.348 315.172 227.019 314.643 225.828 Z M 319.471 233.982 C 320.86 233.982 322.645 234.518 323.042 235.179 C 323.439 235.84 323.769 237.633 324.1 238.962 L 322.116 238.565 C 320.952 238.486 319.821 238.142 318.81 237.566 C 318.479 236.237 318.082 234.915 317.685 233.718 Z M 321.587 241.415 C 322.91 241.415 324.695 241.944 324.96 242.54 C 325.224 243.141 325.555 245.132 325.819 246.454 L 323.769 246.058 C 322.513 246.058 320.992 245.595 320.595 245.066 C 320.198 244.53 320 242.341 319.669 241.019 Z M 323.373 248.974 C 324.629 248.974 326.415 249.444 326.547 250.039 L 327.208 253.821 L 325.158 253.352 C 323.835 253.352 322.314 252.823 322.05 252.228 L 321.389 248.577 Z M 324.629 256.209 C 326.018 256.209 327.671 256.738 327.803 257.465 L 327.803 257.465 C 327.803 258.662 328.2 259.925 328.332 261.182 L 326.282 260.653 C 324.96 260.653 323.373 259.991 323.174 259.39 C 322.976 258.794 322.844 257.002 322.645 255.812 Z M 325.687 263.437 C 327.076 263.437 328.729 264.171 328.795 264.766 L 328.795 264.766 C 328.795 266.155 329.126 267.55 329.324 269.012 L 327.34 268.416 C 326.018 268.416 324.497 267.682 324.232 267.087 L 323.703 262.974 Z M 326.679 271.201 C 327.936 271.201 329.721 271.994 329.787 272.589 L 329.787 272.589 C 329.787 273.965 329.919 275.334 330.184 276.703 L 328.2 276.041 C 326.877 275.645 325.29 275.248 325.092 274.58 C 324.894 273.919 325.092 271.928 324.695 270.605 Z M 324.827 370.701 L 326.613 371.699 C 327.869 372.361 329.39 373.161 329.324 373.822 L 329.324 373.822 C 329.324 375.218 329.324 376.54 328.795 377.936 L 327.01 376.871 C 325.819 376.21 324.298 375.416 324.298 374.682 C 324.298 373.954 324.629 372.096 324.827 370.701 Z M 325.687 379.463 C 326.877 380.058 328.398 380.918 328.332 381.586 L 328.332 381.586 C 328.332 382.975 327.936 384.37 327.671 385.765 L 325.886 384.635 C 324.629 383.907 323.108 383.041 323.24 382.38 L 323.24 382.38 C 323.24 381.116 323.637 379.794 323.769 378.398 Z M 324.563 387.154 C 325.687 387.815 327.208 388.748 327.142 389.343 L 327.142 389.343 C 327.142 390.738 326.613 392.134 326.415 393.456 L 324.695 392.332 C 323.505 391.598 322.05 390.738 322.116 390.011 C 322.182 389.277 322.579 387.419 322.777 386.03 Z M 325.423 409.777 L 325.423 409.777 C 326.348 410.439 327.539 411.371 327.605 411.9 C 327.671 412.429 326.547 414.817 325.952 416.146 L 324.431 414.75 L 323.637 414.023 C 324.365 413.091 324.894 411.298 325.356 409.777 Z M 327.34 407.655 L 326.282 406.854 C 326.679 405.4 327.076 403.872 327.473 402.344 L 327.473 402.344 C 328.531 403.078 329.986 404.004 329.853 404.599 C 329.721 405.201 329.06 407.456 328.663 408.779 Z M 329.39 399.825 L 328.266 399.031 C 328.617 397.523 328.947 395.996 329.258 394.455 L 329.258 394.455 C 330.382 395.116 331.837 396.042 331.771 396.644 C 331.705 397.239 331.176 399.494 330.779 400.889 Z M 331.044 392.134 L 329.853 391.334 C 329.853 389.806 330.382 388.285 330.647 386.757 L 330.647 386.757 L 330.647 386.757 C 331.771 387.419 333.358 388.351 333.226 388.946 L 333.226 388.946 L 332.432 393.06 Z M 332.366 384.436 L 331.11 383.709 C 331.11 382.181 331.573 380.653 331.771 379.126 L 332.102 379.126 C 333.226 379.728 334.813 380.587 334.747 381.249 L 334.747 381.249 C 334.747 382.644 334.35 384.039 334.086 385.428 Z M 333.491 376.739 L 332.168 375.945 C 332.168 374.417 332.499 372.89 332.697 371.369 L 333.028 371.369 C 334.284 372.03 335.805 372.824 335.739 373.492 L 335.739 373.492 C 335.739 374.88 335.739 376.21 335.21 377.605 Z M 334.35 368.981 L 333.028 368.247 L 333.424 363.671 L 333.424 363.671 L 333.755 363.671 C 335.012 364.266 336.533 365.066 336.466 365.728 L 336.466 365.728 C 336.466 367.123 336.466 368.512 336.07 369.841 Z M 335.078 361.218 L 333.689 360.49 C 333.689 358.963 333.689 357.369 333.689 355.841 L 333.689 355.841 C 335.408 356.641 336.533 357.237 336.466 358.037 L 336.466 358.037 C 336.466 359.426 336.466 360.755 336.466 362.144 Z M 335.541 353.322 L 334.218 352.66 C 334.218 351.067 334.218 349.479 334.218 347.952 L 334.218 347.952 L 334.218 347.952 C 336.334 348.812 337.194 349.341 337.128 350.207 L 337.128 350.207 C 337.128 351.53 337.128 352.859 337.128 354.188 Z M 335.541 345.432 L 334.284 344.897 C 334.284 343.376 334.284 341.914 334.284 340.519 L 334.747 340.519 C 336.004 341.054 337.591 341.782 337.525 342.377 L 337.525 342.377 C 337.525 343.64 337.525 344.963 337.525 346.226 Z M 336.136 338.065 L 334.615 337.338 C 334.615 335.744 334.615 334.217 334.615 332.696 L 334.615 332.696 L 335.012 332.696 C 336.731 333.423 337.921 333.952 337.921 334.686 L 337.921 334.686 C 337.921 336.009 337.921 337.404 337.921 338.727 Z M 336.136 330.235 L 334.681 329.574 C 334.681 327.914 334.681 326.459 334.681 324.998 L 335.144 324.998 C 336.533 325.527 338.054 326.129 338.054 326.922 L 338.054 326.922 C 338.054 328.252 338.054 329.574 338.054 330.969 Z M 336.136 322.478 L 334.615 321.817 C 334.615 321.817 334.615 321.347 334.615 321.149 C 334.615 320.951 334.615 318.696 334.615 317.3 L 335.144 317.3 C 336.4 317.77 338.054 318.431 338.054 319.092 L 338.054 319.092 C 338.054 319.694 338.054 320.289 338.054 320.951 C 338.054 321.612 338.054 322.412 338.054 323.14 Z M 338.516 260.587 L 337.128 260.256 L 336.466 256.076 L 336.797 256.076 C 338.186 256.076 339.905 256.606 339.971 257.333 L 339.971 257.333 L 340.5 261.05 Z M 337.392 253.286 L 336.004 253.286 L 335.276 249.172 L 336.004 249.172 C 337.26 249.172 338.979 249.642 339.178 250.237 C 339.376 250.832 339.641 252.691 339.839 254.02 Z M 336.07 246.058 L 334.681 246.058 C 334.681 244.53 334.02 243.075 333.689 241.614 L 333.689 241.614 C 335.012 241.614 336.797 242.143 337.062 242.738 C 337.326 243.34 337.657 245.33 337.921 246.653 Z M 334.284 238.492 L 332.895 238.492 C 332.499 237.037 332.102 235.642 331.705 234.247 L 331.705 234.247 C 333.094 234.247 334.879 234.782 335.276 235.444 C 335.673 236.105 336.004 237.897 336.334 239.226 Z M 334.284 223.97 C 333.623 222.442 332.895 220.981 332.102 219.658 L 345.725 199.422 C 348.105 201.413 350.354 203.47 352.338 205.658 Z M 303.269 163.864 L 303.269 163.864 C 303.447 165.385 303.447 166.926 303.269 168.447 C 301.093 169.617 299.129 171.145 297.449 172.957 C 295.928 170.503 294.976 167.732 294.672 164.862 L 294.672 164.862 C 294.222 160.405 295.32 155.935 297.78 152.192 C 301.093 155.32 303.196 159.526 303.732 164.069 Z M 286.273 122.274 C 290.175 124.41 293.243 127.796 295.002 131.896 C 295.545 133.239 295.942 134.641 296.193 136.069 C 295.426 137.636 294.85 139.283 294.473 140.983 L 294.473 140.983 C 292.456 137.63 289.606 134.866 286.207 132.954 C 285.837 131.671 285.592 130.369 285.48 129.039 C 285.499 126.771 285.923 124.523 286.736 122.406 Z M 282.372 134.482 C 288.006 136.539 292.377 141.088 294.209 146.822 C 292.701 148.819 291.537 151.061 290.77 153.455 C 288.35 151.894 286.313 149.811 284.818 147.351 C 282.391 143.582 281.512 139.019 282.372 134.614 Z M 289.315 156.57 L 289.844 157.429 C 289.672 159.016 289.672 160.623 289.844 162.211 L 288.191 160.947 C 287.199 160.088 286.134 159.307 285.017 158.626 L 283.628 157.833 L 282.901 159.221 C 282.901 159.757 282.305 160.352 282.041 160.947 L 281.115 160.154 C 280.388 159.38 279.726 158.567 279.131 157.7 C 279.131 154.844 279.131 151.927 279.131 148.945 L 280.917 149.54 C 283.086 152.562 285.969 154.996 289.315 156.636 Z M 277.676 119.689 C 278.615 120.786 279.435 121.99 280.123 123.266 C 279.759 125.627 279.759 128.014 280.123 130.369 L 279.263 130.038 C 278.364 128.947 277.365 127.955 276.287 127.049 C 275.758 123.736 275.097 120.416 274.304 116.898 C 275.534 117.718 276.664 118.67 277.676 119.755 Z M 279.065 179.391 C 279.065 174.815 279.065 170.232 279.065 165.458 C 289.785 187.823 272.353 213.449 247.679 211.584 C 224.858 209.858 211.096 185.436 221.399 164.929 C 221.399 169.24 221.399 174.081 221.399 179.391 C 220.328 201.73 243.778 216.848 263.597 206.611 C 273.682 201.393 279.799 190.753 279.263 179.391 Z M 228.21 28.871 C 229.93 22.834 234.03 25.889 238.99 32.191 L 238.99 32.191 C 239.241 32.515 239.631 32.713 240.048 32.72 L 240.048 32.72 C 234.916 45.318 233.071 59.014 234.691 72.524 L 234.691 72.524 C 232.046 61.513 225.83 36.767 228.144 28.739 Z M 224.176 97.66 C 224.143 97.462 224.143 97.264 224.176 97.065 L 224.176 97.065 C 225.036 93.924 226.676 91.047 228.938 88.706 C 231.583 86.451 234.294 86.65 235.551 88.706 C 236.807 90.763 236.146 92.886 232.773 94.281 C 229.401 95.676 229.533 97.932 228.409 99.254 C 227.992 99.876 227.298 100.246 226.557 100.253 L 225.83 100.253 L 225.83 100.253 C 224.62 99.955 223.859 98.752 224.11 97.528 Z M 185.755 114.246 L 213.265 97.865 L 213.265 97.865 C 215.546 93.177 218.661 88.951 222.457 85.393 C 225.433 82.893 228.237 80.182 230.856 77.299 C 226.227 89.903 221.201 102.177 214.786 105.292 C 208.371 108.413 195.41 113.651 192.301 114.914 L 192.301 114.914 C 189.729 116.151 186.852 116.587 184.035 116.17 C 184.412 115.364 184.981 114.656 185.688 114.114 Z M 184.564 121.216 C 187.838 121.329 191.091 120.687 194.087 119.358 C 196.031 118.604 196.441 116.018 194.814 114.702 C 194.418 114.378 193.935 114.173 193.426 114.114 C 197.314 113.624 200.27 117.546 198.749 121.163 C 198.643 121.415 198.524 121.653 198.386 121.877 C 198.386 121.877 202.882 127.115 214.918 119.358 C 228.673 110.463 255.456 122.274 264.119 95.405 C 261.739 94.942 256.779 88.31 265.442 80.149 C 271.533 74.31 276.076 67.035 278.668 58.987 L 279.065 58.326 C 281.274 61.203 282.398 64.78 282.239 68.411 C 282.2 71.724 281.545 75.011 280.321 78.092 C 278.728 82.1 276.235 85.684 273.047 88.574 C 270.157 91.246 267.896 94.532 266.434 98.196 L 266.434 98.725 L 266.434 98.725 C 273.444 131.896 266.434 154.579 236.278 180.383 C 226.425 170.636 225.235 154.381 225.565 146.352 L 225.565 145.096 C 228.415 145.479 231.286 145.698 234.162 145.757 L 234.162 142.841 C 222.913 141.968 211.81 139.746 201.097 136.208 C 187.408 134.614 185.556 132.425 185.027 130.303 C 191.177 131.585 197.519 131.585 203.676 130.303 L 203.213 127.446 C 196.904 129.172 190.271 129.311 183.903 127.849 L 183.903 127.849 C 182.534 125.759 182.812 122.988 184.564 121.216 Z M 101.901 205.46 C 101.901 205.46 101.901 204.997 101.901 204.997 C 101.901 204.997 101.438 204.997 101.438 204.997 L 101.438 204.997 C 99.381 207.775 98.164 211.094 97.933 214.546 C 97.9 214.989 97.9 215.433 97.933 215.876 L 97.272 215.214 C 94.693 212.225 96.478 205.658 98.594 201.942 C 98.72 201.816 98.72 201.605 98.594 201.479 C 98.594 201.479 98.131 201.479 98.131 201.479 L 98.131 201.479 C 96.048 204.25 94.805 207.57 94.56 211.035 C 94.527 211.478 94.527 211.914 94.56 212.357 L 94.56 212.357 C 91.849 209.64 92.775 203.8 96.743 198.43 C 118.619 168.969 148.45 146.405 182.713 133.417 C 183.771 135.408 186.217 137.002 192.037 138.331 C 186.674 146.042 182.898 154.744 180.927 163.937 C 179.585 165.491 177.997 166.813 176.232 167.845 C 170.677 171.37 163.409 167.547 163.144 160.967 C 163.012 157.773 164.665 154.771 167.436 153.184 C 169.572 151.98 171.993 151.365 174.446 151.398 L 172.132 146.088 C 169.48 146.59 166.914 147.49 164.527 148.74 C 156.578 151.821 153.39 161.397 157.914 168.645 C 161.908 175.714 171.1 177.804 177.753 173.155 L 179.406 172.157 C 179.406 174.412 179.009 176.739 179.009 178.79 L 178.679 178.79 C 156.644 190.64 137.856 207.748 123.988 228.612 C 121.958 231.568 120.814 235.04 120.682 238.631 L 120.682 238.631 C 118.103 235.642 119.888 229.009 122.005 225.359 C 122.005 225.359 122.005 224.896 122.005 224.896 C 122.005 224.896 121.542 224.896 121.542 224.896 L 121.542 224.896 C 119.485 227.673 118.268 230.993 118.037 234.452 C 118.004 234.895 118.004 235.331 118.037 235.774 L 117.375 235.113 C 114.796 232.124 116.582 225.491 118.698 221.847 C 118.824 221.722 118.824 221.51 118.698 221.378 C 118.566 221.252 118.361 221.252 118.235 221.378 L 118.235 221.378 C 116.152 224.155 114.909 227.468 114.664 230.934 C 114.624 231.377 114.624 231.813 114.664 232.263 L 114.003 231.595 C 111.424 228.612 113.209 221.979 115.325 218.329 C 115.451 218.203 115.451 217.992 115.325 217.866 C 115.193 217.741 114.988 217.741 114.862 217.866 L 114.862 217.866 C 112.799 220.644 111.582 223.963 111.358 227.415 C 111.324 227.859 111.324 228.302 111.358 228.745 L 110.696 228.083 C 108.117 225.094 109.903 218.527 112.019 214.811 C 112.144 214.685 112.144 214.474 112.019 214.348 C 112.019 214.348 111.556 214.348 111.556 214.348 L 111.556 214.348 C 109.479 217.125 108.236 220.439 107.985 223.904 C 107.945 224.347 107.945 224.783 107.985 225.227 L 107.324 224.565 C 104.744 221.583 106.53 215.009 108.646 211.299 C 108.772 211.068 108.6 210.784 108.342 210.79 C 108.216 210.79 108.104 210.863 108.051 210.969 L 108.051 210.969 C 105.988 213.746 104.771 217.059 104.546 220.518 C 104.513 220.961 104.513 221.398 104.546 221.847 L 103.885 221.179 C 101.306 218.197 103.091 211.564 105.207 207.913 C 105.333 207.788 105.333 207.576 105.207 207.451 C 105.075 207.325 104.87 207.325 104.744 207.451 L 104.744 207.451 C 102.681 210.228 101.464 213.548 101.24 217 C 101.206 217.45 101.206 217.886 101.24 218.329 L 100.578 217.668 C 97.933 215.942 99.851 209.375 101.901 205.725 Z M 86.426 293.685 C 84.958 289.413 85.573 284.704 88.08 280.948 C 88.132 280.697 87.901 280.485 87.656 280.558 C 87.617 280.571 87.577 280.591 87.55 280.618 L 87.55 280.618 C 85.467 283.395 84.224 286.708 83.979 290.173 C 83.946 290.636 83.946 291.099 83.979 291.562 L 83.45 290.967 C 80.673 288.051 82.525 281.286 84.641 277.701 C 84.766 277.576 84.766 277.364 84.641 277.238 C 84.508 277.113 84.303 277.113 84.178 277.238 L 84.178 277.238 C 82.088 280.009 80.845 283.322 80.607 286.788 C 80.567 287.25 80.567 287.72 80.607 288.183 L 80.012 287.581 C 77.234 284.665 79.086 277.9 81.268 274.315 C 81.394 274.19 81.394 273.978 81.268 273.852 C 81.136 273.727 80.931 273.727 80.805 273.852 L 80.805 273.852 C 78.748 276.63 77.532 279.95 77.3 283.408 C 77.261 283.871 77.261 284.334 77.3 284.797 L 76.705 284.202 C 73.994 281.286 75.779 274.514 77.962 270.936 C 77.962 270.936 77.962 270.467 77.962 270.467 C 77.962 270.467 77.499 270.467 77.499 270.467 L 77.499 270.467 C 75.435 273.251 74.219 276.564 73.994 280.022 C 73.954 280.485 73.954 280.948 73.994 281.418 L 73.465 280.419 C 70.753 277.503 72.605 270.738 74.721 267.153 C 74.847 266.922 74.675 266.644 74.417 266.651 C 74.291 266.651 74.179 266.717 74.126 266.823 L 74.126 266.823 C 72.036 269.594 70.793 272.913 70.555 276.372 C 70.522 276.835 70.522 277.304 70.555 277.767 L 69.96 277.172 C 67.248 274.249 69.1 267.55 71.216 263.9 C 71.342 263.668 71.17 263.391 70.912 263.397 C 70.786 263.397 70.674 263.463 70.621 263.569 L 70.621 263.569 C 68.538 266.347 67.295 269.66 67.05 273.125 C 67.017 273.588 67.017 274.051 67.05 274.514 L 66.455 273.919 C 63.743 270.936 65.595 264.303 67.711 260.653 C 67.837 260.421 67.665 260.144 67.407 260.15 C 67.281 260.15 67.169 260.216 67.116 260.322 L 67.116 260.322 C 65.059 263.1 63.843 266.419 63.611 269.871 C 63.578 270.334 63.578 270.804 63.611 271.267 L 62.95 270.605 C 60.305 267.616 62.09 260.983 64.206 257.333 C 64.332 257.207 64.332 256.996 64.206 256.87 C 64.074 256.744 63.869 256.744 63.743 256.87 L 63.743 256.87 C 61.654 259.641 60.417 262.961 60.172 266.426 C 60.133 266.869 60.133 267.305 60.172 267.749 C 56.932 264.435 59.114 256.738 64.868 250.965 C 75.574 240.344 87.676 231.238 100.843 223.904 L 103.223 226.291 C 98.508 228.804 93.959 231.615 89.601 234.716 L 89.601 234.716 C 89.601 234.716 89.601 234.716 89.601 234.716 C 89.726 234.842 89.931 234.842 90.063 234.716 C 90.063 234.716 96.677 230.669 104.348 226.688 L 106.728 229.075 C 101.993 231.595 97.424 234.412 93.039 237.5 C 92.907 237.626 92.907 237.838 93.039 237.963 C 93.165 238.089 93.37 238.089 93.502 237.963 C 93.502 237.963 100.115 233.916 107.853 230.008 L 110.233 232.395 C 105.479 234.868 100.882 237.639 96.478 240.688 L 96.478 240.688 C 96.478 240.688 96.478 240.688 96.478 240.688 C 96.604 240.814 96.809 240.814 96.941 240.688 C 96.941 240.688 103.554 236.707 111.358 232.792 L 113.738 235.179 C 108.964 237.652 104.348 240.423 99.917 243.472 C 99.818 243.611 99.818 243.796 99.917 243.935 C 100.043 244.061 100.248 244.061 100.38 243.935 C 100.38 243.935 106.993 239.954 114.862 236.105 L 117.243 238.492 C 112.469 240.946 107.853 243.697 103.422 246.719 L 103.422 246.719 C 103.422 246.719 103.422 246.719 103.422 246.719 C 103.547 246.845 103.752 246.845 103.885 246.719 C 103.885 246.719 110.498 242.738 118.434 238.962 L 120.814 241.349 C 116 243.776 111.338 246.501 106.861 249.51 L 106.861 249.51 C 106.861 249.51 106.861 249.51 106.861 249.51 L 106.861 249.51 C 106.986 249.635 107.191 249.635 107.324 249.51 C 107.324 249.51 113.937 245.595 121.938 241.812 L 123.063 242.943 L 123.063 242.943 C 123.499 243.373 123.988 243.75 124.518 244.067 C 119.611 246.481 114.862 249.212 110.299 252.228 L 110.299 252.228 C 110.299 252.228 110.299 252.228 110.299 252.228 C 110.425 252.353 110.63 252.353 110.762 252.228 C 110.762 252.228 117.772 251.229 126.171 247.255 C 128.922 248.002 131.845 247.843 134.503 246.785 C 127.249 249.992 120.265 253.762 113.606 258.067 C 113.606 258.067 113.606 258.53 113.606 258.53 C 113.732 258.656 113.937 258.656 114.069 258.53 C 121.899 254.331 129.96 250.568 138.207 247.255 C 138.207 248.247 138.207 249.245 138.207 250.237 C 121.595 257.049 106.411 266.929 93.436 279.361 C 89.409 283.097 86.909 288.209 86.426 293.685 Z M 140.587 302.976 C 129.147 314.45 110.696 336.141 108.382 359.822 C 104.83 353.017 103.078 345.412 103.29 337.735 C 103.508 328.979 104.46 320.263 106.133 311.666 L 106.662 308.677 L 104.017 310.204 C 90.328 317.902 84.839 322.412 81.268 327.716 C 82.789 318.656 86.069 309.98 90.923 302.176 C 96.61 305.959 104.149 304.101 112.151 296.806 C 115.53 293.903 119.062 291.179 122.732 288.646 C 121.852 289.664 120.927 290.643 119.955 291.562 C 119.822 291.688 119.822 291.906 119.955 292.032 C 120.08 292.157 120.285 292.157 120.417 292.032 L 120.417 292.032 C 122.739 290.319 124.828 288.315 126.634 286.06 L 129.014 284.466 C 129.92 283.891 130.873 283.382 131.858 282.939 C 129.848 287.489 126.892 291.562 123.195 294.882 C 122.99 295.034 123.023 295.352 123.261 295.451 C 123.367 295.497 123.493 295.484 123.592 295.411 L 123.592 295.411 C 128.267 292.138 131.838 287.502 133.842 282.145 C 134.636 281.901 135.456 281.722 136.289 281.616 C 134.913 288.084 131.448 293.91 126.435 298.195 C 126.303 298.327 126.303 298.539 126.435 298.665 C 126.435 298.665 126.898 298.665 126.898 298.665 L 126.898 298.665 C 132.837 294.736 136.851 288.474 137.942 281.418 L 139.595 281.418 C 139.536 289.201 135.925 296.535 129.808 301.316 C 129.676 301.442 129.676 301.654 129.808 301.779 C 129.808 301.779 130.271 301.779 130.271 301.779 L 130.271 301.779 C 135.422 298.255 139.212 293.057 140.984 287.052 C 140.984 289.043 141.381 291.033 141.645 293.024 C 139.635 297.355 136.778 301.237 133.247 304.431 C 133.115 304.557 133.115 304.775 133.247 304.901 C 133.247 304.901 133.71 304.901 133.71 304.901 L 133.71 304.901 C 137.029 302.467 139.84 299.405 141.976 295.874 C 141.976 297.335 142.373 298.731 142.571 300.186 Z M 250.034 455.547 C 219.084 447.452 194.352 426.158 176.629 393.126 C 187.123 417.726 205.475 438.121 228.806 451.103 C 204.073 438.22 184.214 417.581 172.264 392.332 C 152.425 354.585 142.174 302.712 140.852 238.228 C 155.897 231.006 171.629 225.293 187.805 221.179 L 191.64 220.253 C 219.62 260.878 279.316 261.314 307.898 221.113 C 308.837 222.052 309.644 223.124 310.279 224.301 C 317.751 236.971 324.431 273.522 324.431 321.817 C 325.013 350.306 321.944 378.749 315.305 406.458 C 300.412 430.337 277.114 447.723 250.034 455.15 Z M 306.84 431.336 C 306.112 431.409 305.378 431.409 304.658 431.336 L 303.401 431.336 L 306.708 427.818 L 306.708 428.347 C 306.873 429.2 306.919 430.073 306.84 430.939 Z M 271.129 451.235 C 288.303 441.593 302.912 427.937 313.717 411.437 C 312.58 415.041 310.834 418.434 308.559 421.45 L 308.559 421.45 C 298.283 433.737 285.552 443.729 271.195 450.772 Z M 309.551 429.808 C 309.551 429.147 309.551 428.42 309.551 427.818 C 309.326 426.68 309.326 425.51 309.551 424.373 L 311.006 422.646 C 311.449 423.228 311.939 423.784 312.461 424.306 C 313.043 424.862 313.532 425.51 313.916 426.224 C 312.679 427.666 311.204 428.883 309.551 429.808 Z M 314.379 422.316 C 313.321 421.185 312.461 420.193 312.726 419.657 L 312.726 419.657 C 313.433 418.414 314.068 417.125 314.643 415.815 C 315.119 416.285 315.629 416.728 316.164 417.138 C 317.355 418.136 318.148 418.864 318.082 419.393 C 317.361 420.887 316.541 422.329 315.635 423.705 Z M 315.834 429.808 C 315.834 429.346 315.834 428.883 315.834 428.42 L 315.834 428.42 C 316.912 427.176 317.884 425.841 318.743 424.439 C 319.306 424.974 319.775 425.603 320.132 426.297 C 319.008 427.679 317.665 428.869 316.164 429.808 Z M 320.661 422.316 L 320.132 421.714 C 320.926 420.259 321.653 418.732 322.381 417.072 L 322.381 417.072 C 323.505 418.07 324.431 418.798 324.298 419.327 C 323.551 420.821 322.711 422.263 321.785 423.638 Z M 322.116 429.808 C 322.116 429.346 322.116 428.883 322.116 428.42 C 323.187 427.17 324.166 425.841 325.026 424.439 C 325.588 424.968 326.064 425.596 326.415 426.297 C 325.396 427.653 324.166 428.843 322.777 429.808 Z M 328.2 423.771 C 327.803 423.242 327.34 422.779 327.01 422.382 L 326.481 421.78 C 327.274 420.325 328.002 418.798 328.729 417.138 L 328.729 417.138 C 329.853 418.136 330.779 418.864 330.647 419.393 C 330.025 420.874 329.318 422.316 328.531 423.705 Z M 332.168 416.344 L 330.647 414.949 L 329.853 414.221 C 330.382 412.76 330.911 411.298 331.374 409.777 L 331.374 409.777 C 332.3 410.439 333.491 411.371 333.557 411.9 C 333.623 412.429 333.028 414.949 332.432 416.278 Z M 334.879 408.911 L 333.358 407.655 L 332.3 406.854 C 332.697 405.4 333.094 403.872 333.491 402.344 L 333.491 402.344 C 334.549 403.078 336.004 404.004 335.871 404.599 C 335.739 405.201 335.607 407.522 335.144 408.845 Z M 336.995 401.286 L 335.342 400.023 L 334.218 399.23 C 334.568 397.722 334.899 396.194 335.21 394.653 L 335.21 394.653 C 336.334 395.315 337.789 396.241 337.723 396.842 C 337.657 397.437 337.591 399.825 337.26 401.22 Z M 338.715 393.523 L 336.995 392.398 L 335.805 391.598 C 335.805 390.077 336.334 388.549 336.599 387.022 L 336.599 387.022 L 336.599 387.022 C 337.723 387.683 339.31 388.616 339.178 389.211 L 339.178 389.211 C 339.442 390.738 339.244 392.061 338.979 393.192 Z M 340.104 385.832 L 338.318 384.701 L 337.062 383.973 C 337.062 382.446 337.525 380.918 337.723 379.397 L 337.723 379.397 L 338.054 379.397 C 339.178 379.992 340.765 380.852 340.699 381.52 L 340.699 381.52 Z M 341.228 378.068 L 339.442 377.003 L 338.12 376.21 C 338.12 374.682 338.45 373.161 338.649 371.633 L 338.979 371.633 C 340.236 372.295 341.757 373.095 341.691 373.756 L 341.691 373.756 Z M 342.154 370.304 L 340.302 369.246 L 338.979 368.512 C 338.979 366.991 338.979 365.463 339.376 363.936 L 339.773 363.936 C 341.029 364.537 342.55 365.331 342.484 365.992 L 342.484 365.992 C 342.617 367.454 342.617 368.849 342.617 370.172 Z M 342.881 362.547 L 341.029 361.548 L 339.641 360.821 C 339.641 359.293 339.641 357.7 339.971 356.179 L 339.971 356.179 C 341.691 356.972 342.815 357.567 342.815 358.367 L 342.815 358.367 C 343.278 360.021 343.212 361.085 343.079 362.415 Z M 343.476 354.651 L 341.492 353.586 L 340.17 352.925 C 340.17 351.331 340.17 349.744 340.17 348.216 L 340.17 348.216 C 342.286 349.076 343.146 349.612 343.079 350.471 L 343.079 350.471 C 343.562 351.887 343.761 353.256 343.675 354.585 Z M 343.939 346.755 L 341.823 345.763 L 340.567 345.234 L 340.567 340.849 L 341.029 340.849 C 342.286 341.385 343.807 342.113 343.807 342.708 L 343.807 342.708 C 344.204 344.037 344.204 345.366 344.138 346.755 Z M 343.939 339.262 L 342.154 338.396 L 340.633 337.669 C 340.633 336.075 340.633 334.554 340.633 333.026 L 341.029 333.026 C 342.683 333.754 343.939 334.283 343.939 335.017 L 343.939 335.017 C 344.29 336.425 344.442 337.801 344.402 339.13 Z M 343.939 331.432 L 342.021 330.507 L 340.567 329.839 C 340.567 328.185 340.567 326.724 340.567 325.262 L 341.029 325.262 C 342.418 325.791 343.939 326.393 343.939 327.187 L 343.939 327.187 C 344.667 328.648 344.667 329.971 344.601 331.3 Z M 343.939 323.669 L 342.021 322.809 L 340.5 322.148 L 340.5 321.48 C 340.5 320.356 340.5 319.026 340.5 317.638 L 341.029 317.638 C 342.352 318.1 343.939 318.762 343.939 319.423 L 343.939 319.423 L 343.939 321.281 C 344.733 322.082 344.733 322.809 344.733 323.536 Z M 346.584 338.462 C 346.584 331.829 346.584 325.725 346.584 321.48 C 346.584 302.976 345.526 255.144 335.276 228.216 C 343.033 231.046 350.685 234.273 358.223 237.897 C 358.276 271.677 354.619 305.357 347.312 338.33 Z M 418.072 327.451 C 414.501 322.148 409.078 317.638 395.323 309.94 L 392.678 308.412 L 393.207 311.401 C 394.886 319.998 395.832 328.714 396.05 337.47 C 396.255 345.141 394.503 352.753 390.958 359.558 C 388.577 336.207 370.193 314.186 358.752 302.712 L 356.769 300.384 L 357.298 296.072 C 359.427 299.584 362.238 302.632 365.564 305.033 L 365.564 305.033 C 365.564 305.033 366.027 305.033 366.027 305.033 C 366.152 304.907 366.152 304.696 366.027 304.564 C 362.489 301.369 359.632 297.488 357.628 293.156 C 357.628 291.165 358.091 289.175 358.29 287.184 C 360.088 293.063 363.818 298.162 368.87 301.647 L 368.87 301.647 C 368.996 301.773 369.201 301.773 369.333 301.647 C 369.459 301.521 369.459 301.31 369.333 301.184 C 363.19 296.416 359.586 289.069 359.546 281.286 L 361.133 281.286 C 362.231 288.335 366.238 294.591 372.177 298.532 L 372.177 298.532 C 372.303 298.658 372.508 298.658 372.64 298.532 C 372.766 298.407 372.766 298.189 372.64 298.063 C 367.621 293.771 364.162 287.951 362.786 281.484 C 363.613 281.596 364.426 281.775 365.233 282.013 C 367.224 287.376 370.801 292.005 375.484 295.279 L 375.484 295.279 C 375.609 295.404 375.814 295.404 375.946 295.279 C 376.072 295.153 376.072 294.941 375.946 294.816 C 372.25 291.503 369.32 287.429 367.349 282.873 C 368.328 283.309 369.28 283.825 370.193 284.4 L 372.64 285.994 C 374.439 288.249 376.528 290.253 378.856 291.966 L 378.856 291.966 C 378.856 291.966 379.319 291.966 379.319 291.966 C 379.445 291.833 379.445 291.622 379.319 291.496 C 378.321 290.577 377.368 289.598 376.475 288.58 C 380.139 291.113 383.671 293.837 387.056 296.74 C 394.992 303.968 402.597 305.827 408.284 302.11 C 413.423 309.761 417.02 318.345 418.865 327.385 Z M 438.572 267.749 L 438.572 267.749 C 438.612 267.239 438.612 266.737 438.572 266.221 C 438.328 262.815 437.111 259.535 435.067 256.804 L 435.067 256.804 C 435.067 256.804 434.604 256.804 434.604 256.804 C 434.472 256.93 434.472 257.141 434.604 257.267 C 436.721 260.917 438.506 267.616 435.861 270.539 L 435.2 271.267 C 435.233 270.757 435.233 270.248 435.2 269.739 C 434.961 266.327 433.745 263.053 431.695 260.322 L 431.695 260.322 C 431.562 260.091 431.238 260.091 431.099 260.315 C 431.04 260.415 431.04 260.547 431.099 260.653 C 433.216 264.303 435.067 271.002 432.356 273.919 L 431.695 274.58 C 431.728 274.071 431.728 273.568 431.695 273.059 C 431.47 269.62 430.246 266.327 428.19 263.569 L 428.19 263.569 C 428.057 263.443 427.852 263.443 427.727 263.569 C 427.595 263.695 427.595 263.906 427.727 264.032 C 429.843 267.682 431.695 274.381 428.983 277.304 L 428.322 277.966 C 428.362 277.457 428.362 276.954 428.322 276.438 C 428.077 273.032 426.86 269.752 424.817 267.021 L 424.817 267.021 C 424.685 266.79 424.361 266.79 424.222 267.014 C 424.162 267.114 424.162 267.246 424.222 267.352 C 426.338 271.002 428.19 277.767 425.478 280.618 L 424.817 281.286 C 424.857 280.77 424.857 280.267 424.817 279.758 C 424.579 276.339 423.362 273.072 421.312 270.334 L 421.312 270.334 C 421.18 270.209 420.975 270.209 420.849 270.334 C 420.717 270.46 420.717 270.678 420.849 270.804 C 423.032 274.514 424.817 281.219 422.04 284.07 L 421.378 284.731 C 421.411 284.222 421.411 283.719 421.378 283.203 C 421.153 279.771 419.93 276.471 417.873 273.72 L 417.873 273.72 C 417.741 273.595 417.536 273.595 417.41 273.72 C 417.278 273.846 417.278 274.057 417.41 274.183 C 419.527 277.9 421.378 284.599 418.601 287.449 L 417.939 288.117 C 417.979 287.608 417.979 287.098 417.939 286.589 C 417.708 283.15 416.491 279.857 414.435 277.106 L 414.435 277.106 C 414.302 276.868 413.978 276.868 413.839 277.099 C 413.78 277.199 413.78 277.331 413.839 277.437 C 415.956 281.147 417.807 287.918 415.03 290.703 L 414.368 291.364 C 414.408 290.835 414.408 290.306 414.368 289.777 C 414.124 286.364 412.907 283.091 410.863 280.353 L 410.863 280.353 C 410.731 280.227 410.526 280.227 410.401 280.353 C 410.401 280.353 410.401 280.816 410.401 280.816 C 412.9 284.572 413.515 289.281 412.054 293.553 C 411.492 288.084 408.952 283.005 404.912 279.295 C 391.93 266.882 376.74 257.022 360.141 250.237 C 360.141 249.245 360.141 248.247 360.141 247.255 C 368.434 250.713 376.542 254.635 384.411 258.993 C 384.537 259.118 384.742 259.118 384.874 258.993 C 384.874 258.993 384.874 258.53 384.874 258.53 C 378.215 254.225 371.225 250.455 363.977 247.255 C 366.648 248.319 369.598 248.478 372.375 247.718 C 380.443 251.566 387.85 255.746 387.916 255.746 C 387.916 255.746 388.379 255.746 388.379 255.746 L 388.379 255.746 C 388.379 255.746 388.379 255.746 388.379 255.746 L 388.379 255.746 C 384.332 252.459 380.086 249.43 375.682 246.653 C 376.204 246.335 376.694 245.958 377.137 245.529 L 377.137 245.529 L 378.261 244.398 C 385.998 248.18 392.81 252.029 392.876 252.095 C 393.002 252.221 393.207 252.221 393.339 252.095 C 393.339 252.095 393.339 252.095 393.339 252.095 L 393.339 252.095 C 388.882 249.08 384.246 246.355 379.451 243.935 L 381.832 241.548 C 389.503 245.33 396.315 249.245 396.381 249.311 C 396.506 249.437 396.711 249.437 396.844 249.311 L 396.844 249.311 L 396.844 249.311 C 392.413 246.276 387.797 243.531 383.022 241.085 L 385.403 238.697 C 393.008 242.54 399.82 246.454 399.886 246.521 C 400.011 246.646 400.216 246.646 400.349 246.521 C 400.474 246.395 400.474 246.183 400.349 246.058 C 395.911 243.016 391.295 240.238 386.527 237.765 L 388.908 235.378 C 396.513 239.226 403.258 243.207 403.325 243.274 C 403.325 243.274 403.787 243.274 403.787 243.274 L 403.787 243.274 L 403.787 243.274 C 399.396 240.225 394.827 237.454 390.098 234.981 L 392.479 232.593 C 400.084 236.508 406.763 240.483 406.829 240.549 C 406.955 240.681 407.16 240.681 407.292 240.549 C 407.292 240.549 407.292 240.086 407.292 240.086 C 402.908 236.991 398.338 234.174 393.603 231.661 L 395.521 227.349 C 403.06 231.264 409.739 235.311 409.805 235.378 C 409.805 235.378 410.268 235.378 410.268 235.378 C 410.268 235.378 410.268 235.378 410.268 235.378 L 410.268 235.378 C 405.904 232.289 401.354 229.472 396.645 226.953 L 399.026 224.565 C 412.186 231.899 424.288 241.012 435.001 251.632 C 440.49 256.87 442.606 264.568 439.366 267.881 Z M 264.516 91.96 L 264.516 91.96 C 265.998 89.837 267.677 87.86 269.542 86.054 C 272.432 83.575 274.7 80.433 276.155 76.902 C 277.035 74.607 277.544 72.193 277.676 69.733 C 274.991 74.687 271.526 79.164 267.426 83.006 C 265.349 84.626 264.014 87.013 263.723 89.639 C 263.723 89.639 263.723 89.639 263.723 89.639 C 263.769 90.677 264.377 91.623 265.31 92.092 Z"/>
  <path class="cls-4" d="M 132.453 195.64 C 125.179 189.007 119.227 200.752 115.788 197.829 C 114.069 196.308 115.788 193.92 117.045 192.591 C 118.381 191.05 120.021 189.807 121.872 188.941 L 118.037 184.96 C 116.046 186.203 114.261 187.75 112.746 189.542 C 109.241 193.583 106.133 199.488 111.225 203.734 C 118.566 210.367 124.451 198.563 128.287 201.81 C 129.874 203.205 128.816 205.129 127.361 206.855 C 125.695 208.8 123.585 210.294 121.211 211.233 L 125.245 215.611 C 127.507 214.163 129.557 212.397 131.329 210.367 C 135.231 205.857 137.611 200.222 132.453 195.64 Z" style="fill: rgb(26, 26, 24);"/>
  <path class="cls-4" d="M 143.497 189.139 L 151.3 182.506 L 156.459 185.694 L 162.543 180.714 L 137.611 166.787 L 130.998 172.289 L 139.992 199.555 L 145.613 194.978 Z M 137.611 173.883 L 137.611 173.883 L 146.671 179.986 L 141.447 184.232 Z" style="fill: rgb(26, 26, 24);"/>
  <path class="cls-4" d="M 360.406 165.127 L 336.004 179.854 L 341.691 184.364 L 346.849 181.183 L 354.718 187.42 L 352.735 193.12 L 358.885 197.961 L 367.416 170.503 Z M 356.372 182.374 L 351.147 178.194 L 360.34 172.09 L 360.34 172.09 Z" style="fill: rgb(26, 26, 24);"/>
</svg>