<?xml version="1.0" encoding="UTF-8"?>
<svg id="Ebene_1" data-name="Ebene 1" xmlns="http://www.w3.org/2000/svg" viewBox="0 0 172.72 72.13">
  <defs>
    <style>
      .cls-1 {
        fill: #cfd0d0;
      }

      .cls-2 {
        fill: #1a1a18;
      }

      .cls-3 {
        fill: #fff;
      }

      .cls-4 {
        fill: #e3000f;
      }
    </style>
  </defs>
  <g>
    <path class="cls-3" d="M.17,25.39c.35.19.83.33,1.39.33.43,0,.83-.09.83-.49,0-.94-2.4-.35-2.4-2.19,0-1.22,1.19-1.55,2.21-1.55.49,0,.97.07,1.31.19l-.09,1.05c-.35-.16-.74-.23-1.12-.23-.34,0-.91.03-.91.47,0,.82,2.4.27,2.4,2.1,0,1.31-1.1,1.67-2.23,1.67-.47,0-1.06-.07-1.51-.22l.12-1.12Z"/>
    <path class="cls-3" d="M7.68,23.94c-.24-.15-.48-.21-.79-.21-.57,0-1,.39-1,1.05,0,.6.51.99,1.08.99.3,0,.59-.06.81-.18l.03.97c-.33.11-.72.17-1.07.17-1.25,0-2.2-.73-2.2-1.98s.95-1.98,2.2-1.98c.39,0,.74.06,1.04.21l-.09.96Z"/>
    <path class="cls-3" d="M8.53,21.19h1.31v2.22h.02c.28-.39.7-.65,1.26-.65,1.03,0,1.45.73,1.45,1.51v2.36h-1.31v-1.83c0-.71-.25-.95-.6-.95-.54,0-.81.37-.81,1.18v1.6h-1.31v-5.45Z"/>
    <path class="cls-3" d="M13.22,22.86h1.37l.61,2.72h.01l.65-2.72h1.57l.64,2.72h.01l.6-2.72h1.26l-1.15,3.78h-1.52l-.64-2.74h-.01l-.72,2.74h-1.52l-1.16-3.78Z"/>
    <path class="cls-3" d="M21.75,25.13c.07.52.47.73,1.11.73.36,0,.76-.08,1.15-.29v.92c-.42.17-.9.24-1.39.24-1.25,0-2.2-.73-2.2-1.98s.85-1.98,2.03-1.98c1.4,0,1.91.99,1.91,2.12v.24h-2.62ZM23.18,24.39c0-.44-.2-.79-.73-.79-.47,0-.7.36-.73.79h1.45Z"/>
    <path class="cls-3" d="M26.69,22.24h-1.31v-.96h1.31v.96ZM25.38,22.86h1.31v3.78h-1.31v-3.78Z"/>
    <path class="cls-3" d="M27.62,25.59l1.73-1.78h-1.69v-.96h3.19v1.05l-1.73,1.78h1.76v.96h-3.25v-1.05Z"/>
    <path class="cls-3" d="M32.8,25.13c.07.52.47.73,1.11.73.36,0,.76-.08,1.16-.29v.92c-.42.17-.9.24-1.39.24-1.25,0-2.2-.73-2.2-1.98s.85-1.98,2.03-1.98c1.4,0,1.91.99,1.91,2.12v.24h-2.61ZM34.24,24.39c0-.44-.2-.79-.73-.79-.47,0-.7.36-.73.79h1.45Z"/>
    <path class="cls-3" d="M38.98,23.9c-.14-.04-.29-.04-.44-.04-.61,0-.95.44-.95,1.18v1.6h-1.31v-3.78h1.19v.7h.01c.23-.48.55-.78,1.12-.78.15,0,.31.02.44.04l-.07,1.09Z"/>
    <path class="cls-3" d="M43.67,21.57h1.66l1.95,5.07h-1.48l-.38-1.08h-1.9l-.4,1.08h-1.37l1.92-5.07ZM44.5,22.62h-.01l-.65,1.98h1.27l-.6-1.98Z"/>
    <path class="cls-3" d="M48.09,21.19h1.31v5.45h-1.31v-5.45Z"/>
    <path class="cls-3" d="M50.52,22.86h1.21v.68h.02c.26-.53.81-.77,1.41-.77,1.05,0,1.62.99,1.62,1.91,0,1.12-.6,2.05-1.73,2.05-.46,0-.95-.17-1.2-.62h-.01v2.06h-1.31v-5.31ZM52.62,23.77c-.48,0-.8.42-.8.99s.36.97.8.97c.49,0,.79-.41.79-1.02,0-.5-.28-.94-.79-.94Z"/>
    <path class="cls-3" d="M56.73,25.13c.07.52.47.73,1.11.73.36,0,.76-.08,1.16-.29v.92c-.42.17-.9.24-1.39.24-1.25,0-2.2-.73-2.2-1.98s.85-1.98,2.03-1.98c1.4,0,1.91.99,1.91,2.12v.24h-2.61ZM58.16,24.39c0-.44-.2-.79-.73-.79-.47,0-.7.36-.73.79h1.45Z"/>
    <path class="cls-3" d="M60.21,22.86h1.19v.7h.01c.26-.54.78-.78,1.38-.78,1.03,0,1.45.73,1.45,1.51v2.36h-1.31v-1.83c0-.71-.25-.95-.6-.95-.54,0-.81.37-.81,1.18v1.6h-1.31v-3.78Z"/>
    <path class="cls-3" d="M65.06,24.21h1.97v.96h-1.97v-.96Z"/>
    <path class="cls-3" d="M72.14,26.52c-.38.09-.81.2-1.5.2-1.35,0-2.91-.68-2.91-2.6,0-1.76,1.23-2.64,2.91-2.64.51,0,1.02.12,1.5.26l-.11,1.1c-.44-.24-.86-.36-1.32-.36-.96,0-1.58.7-1.58,1.64,0,1,.7,1.6,1.69,1.6.44,0,.89-.12,1.26-.26l.07,1.06Z"/>
    <path class="cls-3" d="M73.03,21.19h1.31v5.45h-1.31v-5.45Z"/>
    <path class="cls-3" d="M79.52,26.64h-1.19v-.7h-.02c-.26.54-.79.78-1.38.78-1.03,0-1.45-.73-1.45-1.51v-2.36h1.31v1.83c0,.71.25.95.6.95.54,0,.81-.37.81-1.18v-1.6h1.31v3.78Z"/>
    <path class="cls-3" d="M80.49,21.19h1.31v2.15h.02c.33-.42.78-.57,1.3-.57,1.05,0,1.62.99,1.62,1.91,0,1.12-.6,2.05-1.73,2.05-.6,0-1.13-.34-1.3-.76h-.01v.68h-1.21v-5.45ZM82.59,23.77c-.48,0-.8.42-.8.99s.36.97.8.97c.49,0,.79-.41.79-1.02,0-.5-.28-.94-.79-.94Z"/>
    <path class="cls-3" d="M88.04,25.39c.35.19.84.33,1.39.33.43,0,.84-.09.84-.49,0-.94-2.4-.35-2.4-2.19,0-1.22,1.19-1.55,2.21-1.55.49,0,.97.07,1.31.19l-.09,1.05c-.35-.16-.74-.23-1.12-.23-.34,0-.91.03-.91.47,0,.82,2.4.27,2.4,2.1,0,1.31-1.1,1.67-2.23,1.67-.47,0-1.06-.07-1.51-.22l.12-1.12Z"/>
    <path class="cls-3" d="M94.16,21.57h1.66l1.95,5.07h-1.48l-.38-1.08h-1.9l-.4,1.08h-1.37l1.92-5.07ZM94.99,22.62h-.01l-.65,1.98h1.27l-.6-1.98Z"/>
    <path class="cls-3" d="M102.72,26.52c-.39.09-.81.2-1.5.2-1.35,0-2.91-.68-2.91-2.6,0-1.76,1.23-2.64,2.91-2.64.52,0,1.02.12,1.5.26l-.11,1.1c-.44-.24-.86-.36-1.32-.36-.96,0-1.58.7-1.58,1.64,0,1,.7,1.6,1.69,1.6.44,0,.89-.12,1.26-.26l.07,1.06Z"/>
    <path class="cls-3" d="M46.74,31.49c-.32-.19-.68-.28-1.05-.28-1.17,0-1.95.84-1.95,1.98s.86,1.98,1.91,1.98c.36,0,.85-.09,1.1-.25l.05.71c-.38.16-.86.18-1.16.18-1.61,0-2.67-1.03-2.67-2.64s1.13-2.6,2.68-2.6c.39,0,.78.06,1.14.22l-.06.7Z"/>
    <path class="cls-3" d="M47.88,30.28h.68v5.45h-.68v-5.45Z"/>
    <path class="cls-3" d="M53.28,35.73h-.66v-.59h-.01c-.2.42-.7.68-1.21.68-.96,0-1.39-.6-1.39-1.59v-2.2h.68v1.92c0,.86.19,1.29.79,1.32.78,0,1.13-.62,1.13-1.52v-1.71h.68v3.7Z"/>
    <path class="cls-3" d="M54.62,30.28h.68v2.25h.01c.21-.34.58-.6,1.23-.6,1.07,0,1.6.88,1.6,1.87s-.47,2-1.59,2c-.66,0-1.08-.33-1.26-.61h-.01v.52h-.65v-5.45ZM56.41,32.49c-.74,0-1.1.7-1.1,1.39,0,.62.32,1.38,1.09,1.38s1.04-.82,1.02-1.4c.01-.67-.28-1.37-1.02-1.37Z"/>
    <path class="cls-3" d="M63.12,30.66h.76l2.14,5.07h-.79l-.52-1.28h-2.48l-.52,1.28h-.76l2.16-5.07ZM63.48,31.34l-1.01,2.51h2.02l-1.01-2.51Z"/>
    <path class="cls-3" d="M66.97,30.28h.68v5.45h-.68v-5.45Z"/>
    <path class="cls-3" d="M69.09,32.02h.66v.52h.01c.18-.28.6-.61,1.26-.61,1.08,0,1.6.88,1.6,1.87s-.47,2-1.59,2c-.65,0-1.03-.25-1.24-.6h-.01v2.03h-.68v-5.23ZM70.87,32.49c-.74,0-1.1.7-1.1,1.39,0,.62.32,1.38,1.09,1.38s1.04-.82,1.02-1.4c.01-.67-.28-1.37-1.02-1.37Z"/>
    <path class="cls-3" d="M74.53,31.19h-.77v-.77h.77v.77ZM73.8,32.02h.68v3.7h-.68v-3.7Z"/>
    <path class="cls-3" d="M75.91,32.02h.66v.59h.02c.2-.42.7-.68,1.21-.68.96,0,1.39.6,1.39,1.59v2.2h-.68v-1.92c0-.86-.19-1.29-.79-1.32-.78,0-1.13.62-1.13,1.53v1.71h-.68v-3.7Z"/>
    <path class="cls-3" d="M85.11,31.42c-.37-.14-.57-.21-.95-.21-.41,0-.89.15-.89.68,0,.97,2.18.75,2.18,2.42,0,1.08-.84,1.51-1.85,1.51-.36,0-.7-.1-1.04-.21l.07-.68c.25.1.68.25,1.05.25.41,0,1-.23,1-.83,0-1.13-2.18-.82-2.18-2.4,0-.9.71-1.38,1.63-1.38.33,0,.73.06,1.08.18l-.1.67Z"/>
    <path class="cls-3" d="M89.83,35.73h-.66v-.59h-.01c-.2.42-.7.68-1.21.68-.96,0-1.39-.6-1.39-1.59v-2.2h.68v1.92c0,.86.19,1.29.78,1.32.78,0,1.13-.62,1.13-1.52v-1.71h.68v3.7Z"/>
    <path class="cls-3" d="M92,31.19h-.77v-.77h.77v.77ZM91.27,32.02h.68v3.7h-.68v-3.7Z"/>
    <path class="cls-3" d="M93.11,35c.27.17.66.26.85.26.31,0,.7-.13.7-.53,0-.68-1.61-.62-1.61-1.66,0-.77.57-1.14,1.31-1.14.32,0,.58.07.85.14l-.06.6c-.15-.09-.56-.19-.72-.19-.35,0-.65.15-.65.45,0,.76,1.61.54,1.61,1.72,0,.79-.63,1.16-1.29,1.16-.35,0-.71-.04-1.02-.2l.04-.61Z"/>
    <path class="cls-3" d="M96.12,35c.27.17.65.26.85.26.31,0,.7-.13.7-.53,0-.68-1.61-.62-1.61-1.66,0-.77.57-1.14,1.31-1.14.32,0,.58.07.85.14l-.06.6c-.15-.09-.56-.19-.72-.19-.35,0-.65.15-.65.45,0,.76,1.61.54,1.61,1.72,0,.79-.63,1.16-1.29,1.16-.35,0-.7-.04-1.02-.2l.04-.61Z"/>
    <path class="cls-3" d="M102.25,35.57c-.26.1-.56.24-1.17.24-1.31,0-1.92-.8-1.92-2,0-1.1.69-1.87,1.74-1.87,1.24,0,1.63.9,1.63,2.09h-2.64c0,.73.57,1.23,1.22,1.23.45,0,.97-.23,1.14-.37v.68ZM101.8,33.52c0-.57-.33-1.03-.92-1.03-.67,0-.94.55-.99,1.03h1.92Z"/>
    <path class="cls-3" d="M33.67,40.58c-.32-.19-.68-.28-1.05-.28-1.17,0-1.95.84-1.95,1.98s.86,1.98,1.91,1.98c.36,0,.85-.09,1.11-.25l.04.7c-.39.16-.86.18-1.16.18-1.61,0-2.67-1.03-2.67-2.64s1.13-2.6,2.68-2.6c.39,0,.78.06,1.14.22l-.06.7Z"/>
    <path class="cls-3" d="M34.82,39.36h.68v5.45h-.68v-5.45Z"/>
    <path class="cls-3" d="M40.21,44.81h-.66v-.59h-.01c-.2.42-.7.68-1.21.68-.96,0-1.39-.6-1.39-1.59v-2.2h.68v1.92c0,.86.19,1.29.79,1.32.78,0,1.13-.62,1.13-1.53v-1.71h.68v3.71Z"/>
    <path class="cls-3" d="M41.56,39.36h.68v2.25h.01c.21-.34.58-.6,1.23-.6,1.08,0,1.6.88,1.6,1.87s-.47,2-1.59,2c-.66,0-1.08-.33-1.26-.61h-.01v.52h-.65v-5.45ZM43.34,41.57c-.74,0-1.1.7-1.1,1.39,0,.62.32,1.38,1.09,1.38s1.04-.82,1.02-1.4c.01-.67-.28-1.37-1.02-1.37Z"/>
    <path class="cls-3" d="M50.06,39.74h.76l2.14,5.07h-.79l-.52-1.28h-2.49l-.51,1.28h-.76l2.16-5.07ZM50.41,40.42l-1.01,2.51h2.02l-1.01-2.51Z"/>
    <path class="cls-3" d="M53.91,39.36h.68v5.45h-.68v-5.45Z"/>
    <path class="cls-3" d="M56.02,41.11h.65v.52h.01c.18-.28.6-.61,1.26-.61,1.08,0,1.6.88,1.6,1.87s-.47,2-1.59,2c-.65,0-1.02-.25-1.24-.6h-.01v2.03h-.68v-5.23ZM57.8,41.57c-.74,0-1.1.7-1.1,1.39,0,.62.32,1.38,1.09,1.38s1.04-.82,1.02-1.4c.01-.67-.28-1.37-1.02-1.37Z"/>
    <path class="cls-3" d="M61.46,40.28h-.77v-.77h.77v.77ZM60.73,41.11h.68v3.71h-.68v-3.71Z"/>
    <path class="cls-3" d="M62.85,41.11h.66v.59h.01c.2-.42.7-.68,1.21-.68.96,0,1.39.6,1.39,1.59v2.2h-.68v-1.92c0-.86-.19-1.29-.79-1.32-.78,0-1.12.62-1.12,1.52v1.71h-.68v-3.71Z"/>
    <path class="cls-3" d="M69.12,41.02c1.12,0,1.88.81,1.88,1.94,0,1.06-.77,1.94-1.88,1.94s-1.89-.88-1.89-1.94c0-1.13.75-1.94,1.89-1.94ZM69.12,44.35c.8,0,1.15-.73,1.15-1.39,0-.71-.43-1.39-1.15-1.39s-1.16.68-1.16,1.39c0,.66.36,1.39,1.16,1.39Z"/>
    <path class="cls-3" d="M76.67,40.5c-.37-.15-.57-.21-.95-.21-.41,0-.89.15-.89.68,0,.97,2.18.75,2.18,2.42,0,1.08-.84,1.51-1.85,1.51-.36,0-.71-.1-1.04-.21l.07-.68c.25.1.68.25,1.05.25.41,0,1-.23,1-.83,0-1.13-2.18-.82-2.18-2.4,0-.9.71-1.38,1.63-1.38.33,0,.73.06,1.08.18l-.1.67Z"/>
    <path class="cls-3" d="M79.76,44.81h-.81l-1.33-3.71h.75l1,3.02h.01l1.02-3.02h.68l-1.33,3.71Z"/>
    <path class="cls-3" d="M82.75,40.28h-.77v-.77h.77v.77ZM82.02,41.11h.68v3.71h-.68v-3.71Z"/>
    <path class="cls-3" d="M83.87,44.21l2.14-2.56h-2.03v-.55h2.83v.6l-2.14,2.56h2.21v.55h-3.01v-.6Z"/>
    <path class="cls-3" d="M87.69,44.21l2.13-2.56h-2.03v-.55h2.83v.6l-2.14,2.56h2.22v.55h-3.01v-.6Z"/>
    <path class="cls-3" d="M94.61,44.66c-.26.09-.56.24-1.17.24-1.31,0-1.92-.8-1.92-2,0-1.1.69-1.87,1.73-1.87,1.24,0,1.63.9,1.63,2.09h-2.64c0,.73.57,1.23,1.22,1.23.45,0,.97-.23,1.14-.37v.68ZM94.17,42.6c0-.57-.33-1.03-.92-1.03-.67,0-.95.55-1,1.03h1.92Z"/>
    <path class="cls-3" d="M96,41.11h.64v.57h.01c.18-.39.57-.66.97-.66.2,0,.3.02.45.05v.61c-.12-.05-.26-.07-.38-.07-.61,0-1.01.58-1.01,1.51v1.69h-.68v-3.71Z"/>
    <path class="cls-3" d="M100.65,41.02c1.13,0,1.88.81,1.88,1.94,0,1.06-.77,1.94-1.88,1.94s-1.89-.88-1.89-1.94c0-1.13.76-1.94,1.89-1.94ZM100.65,44.35c.8,0,1.16-.73,1.16-1.39,0-.71-.43-1.39-1.16-1.39s-1.16.68-1.16,1.39c0,.66.36,1.39,1.16,1.39Z"/>
    <path class="cls-3" d="M42.92,49.66c-.32-.19-.67-.28-1.05-.28-1.17,0-1.95.84-1.95,1.98s.86,1.98,1.91,1.98c.36,0,.85-.09,1.1-.25l.04.7c-.39.16-.86.18-1.16.18-1.61,0-2.67-1.03-2.67-2.64s1.13-2.6,2.68-2.6c.39,0,.78.06,1.14.22l-.06.7Z"/>
    <path class="cls-3" d="M44.07,48.45h.68v5.45h-.68v-5.45Z"/>
    <path class="cls-3" d="M49.46,53.9h-.66v-.59h-.01c-.2.42-.7.68-1.21.68-.96,0-1.39-.6-1.39-1.59v-2.2h.68v1.92c0,.86.19,1.29.78,1.32.78,0,1.13-.62,1.13-1.53v-1.71h.68v3.7Z"/>
    <path class="cls-3" d="M50.81,48.45h.68v2.25h.02c.21-.34.58-.6,1.23-.6,1.08,0,1.6.88,1.6,1.87s-.47,2-1.59,2c-.66,0-1.08-.33-1.26-.61h-.01v.52h-.65v-5.45ZM52.59,50.66c-.74,0-1.1.7-1.1,1.4,0,.62.32,1.38,1.09,1.38s1.04-.82,1.02-1.4c.01-.67-.28-1.37-1.02-1.37Z"/>
    <path class="cls-3" d="M59.31,48.82h.76l2.14,5.07h-.79l-.52-1.28h-2.48l-.52,1.28h-.76l2.16-5.07ZM59.66,49.51l-1.01,2.51h2.02l-1.01-2.51Z"/>
    <path class="cls-3" d="M63.15,48.45h.68v5.45h-.68v-5.45Z"/>
    <path class="cls-3" d="M65.27,50.19h.65v.52h.01c.18-.28.6-.61,1.26-.61,1.07,0,1.6.88,1.6,1.87s-.47,2-1.59,2c-.65,0-1.02-.25-1.24-.6h-.01v2.03h-.68v-5.23ZM67.05,50.66c-.74,0-1.1.7-1.1,1.4,0,.62.32,1.38,1.09,1.38s1.04-.82,1.02-1.4c.01-.67-.28-1.37-1.02-1.37Z"/>
    <path class="cls-3" d="M70.71,49.36h-.77v-.77h.77v.77ZM69.98,50.19h.68v3.7h-.68v-3.7Z"/>
    <path class="cls-3" d="M72.1,50.19h.66v.59h.01c.2-.42.7-.68,1.21-.68.96,0,1.39.6,1.39,1.59v2.2h-.68v-1.92c0-.86-.19-1.29-.78-1.32-.78,0-1.13.62-1.13,1.52v1.71h-.68v-3.7Z"/>
    <path class="cls-3" d="M81.29,49.59c-.37-.15-.57-.21-.95-.21-.41,0-.89.14-.89.68,0,.97,2.18.75,2.18,2.42,0,1.08-.83,1.51-1.85,1.51-.36,0-.71-.1-1.04-.21l.07-.68c.25.1.68.25,1.05.25.41,0,.99-.23.99-.83,0-1.13-2.18-.82-2.18-2.4,0-.9.71-1.38,1.63-1.38.33,0,.73.06,1.08.18l-.1.67Z"/>
    <path class="cls-3" d="M84.38,53.9h-.81l-1.33-3.7h.75l1,3.02h.02l1.02-3.02h.68l-1.33,3.7Z"/>
    <path class="cls-3" d="M87.37,49.36h-.77v-.77h.77v.77ZM86.64,50.19h.68v3.7h-.68v-3.7Z"/>
    <path class="cls-3" d="M88.49,53.3l2.14-2.56h-2.04v-.55h2.83v.6l-2.13,2.56h2.21v.55h-3.01v-.6Z"/>
    <path class="cls-3" d="M92.31,53.3l2.14-2.56h-2.03v-.55h2.83v.6l-2.14,2.56h2.22v.55h-3.01v-.6Z"/>
    <path class="cls-3" d="M99.24,53.74c-.26.09-.56.24-1.17.24-1.32,0-1.92-.8-1.92-2,0-1.1.69-1.87,1.74-1.87,1.24,0,1.63.9,1.63,2.09h-2.64c0,.73.57,1.23,1.22,1.23.45,0,.97-.23,1.14-.37v.68ZM98.79,51.69c0-.57-.33-1.03-.92-1.03-.67,0-.94.55-1,1.03h1.92Z"/>
    <path class="cls-3" d="M100.62,50.19h.64v.57h.01c.18-.39.57-.66.97-.66.2,0,.3.02.45.05v.61c-.12-.05-.26-.06-.38-.06-.61,0-1.01.58-1.01,1.51v1.69h-.68v-3.7Z"/>
  </g>
  <g>
    <path class="cls-1" d="M172.72,38.58c0-.96-.48-2.04-1.39-2.95-1.26-1.27-2.77-2.46-4.48-3.54.02-.02.12-.12.12-.12.45-.45.67-1.05.67-1.71,0-.75-.28-1.58-.84-2.34-1.33-1.79-2.89-3.44-4.61-4.91.66-.98,2-2.97,2-2.97.12-.18.18-.39.18-.59,0-.15-.03-.29-.1-.43.37-.71,1.7-3.24,1.7-3.24.08-.16.12-.33.12-.49,0-.34-.17-.68-.47-.88-.45-.3-1.05-.22-1.4.19,0,0-1.87,2.18-2.39,2.79-.36,0-.7.17-.9.47,0,0-1.22,1.81-1.9,2.81-2.92-1.92-6.12-3.32-9.53-4.16-.85-.65-1.78-1.16-2.75-1.55-.11-.36-.22-.7-.34-1.04.13-.2.29-.38.51-.6.43-.44,1.03-1.03,1.44-2.1.25-.65.38-1.35.38-2.01,0-1.23-.46-2.28-1.25-2.88l-.2-.15c-.25-.19-.56-.26-.87-.19-.3.07-.56.26-.71.53l-.12.23c-.73,1.36-1.54,2.32-2.45,2.95-.12-.05-.27-.12-.36-.17,0,0-.15-.07-.32-.15-.05-.58-.09-1.16-.09-1.7,0-1.53.2-2.86.56-3.51.21-.38.39-.47.43-.48.03,0,.2.1.38.46.01.02.03.05.04.07.23.39.65.63,1.1.63.7,0,1.27-.57,1.27-1.27,0-.11-.02-.25-.05-.36l-.02-.07c-.13-.36-.61-1.53-1.75-2.03-.5-.22-1.32-.39-2.37.07-.34.15-.66.37-.95.65-.56-.49-1.13-.77-1.72-.76-.68,0-1.29.36-1.7.99-.26.39-.52,1.02-.52,2.35,0,.5.05,1.13.14,1.86-.3-.02-.6.1-.82.32-.53.55-.82,1.33-.82,2.19,0,.14,0,.28.02.42.08.74.38,1.43.82,2.01-.37.33-.69.79-.88,1.44-.6.36-3.62,2.15-3.62,2.15-.69.4-1.13,1.15-1.23,2.11l-.02.4c0,.18.02.44.07.72-1.74.73-3.41,1.61-4.98,2.64-.85-1.32-1.55-2.74-2.02-4.24-.12-.38-.45-.66-.84-.73-.88-.14-1.77.05-2.51.55-.74.5-1.25,1.25-1.45,2.12-.02.08-.03.16-.03.24,0,.31.14.61.38.82,1.26,1.05,2.37,2.27,3.29,3.62-1.71,1.47-3.26,3.1-4.59,4.9-.56.76-.85,1.59-.85,2.35,0,.66.22,1.27.66,1.71,0,0,.05.05.12.12-1.71,1.08-3.22,2.27-4.48,3.54-.91.91-1.38,1.98-1.38,2.94,0,.65.22,1.25.68,1.71,0,0,3.12,3.12,3.97,3.97-.89,1.68-1.37,3.3-1.4,4.84h0c0,.74.59,1.32,1.31,1.32.53,0,1-.32,1.21-.82,0,.02-.01.04-.02.05.21-.45.39-.82,1-1.32-.05.51-.07.98-.07,1.4,0,1.74.37,3.09,1.22,4.51.21.46.66.74,1.17.74.72,0,1.31-.58,1.31-1.3.03-2.42,1.63-4.88,3.13-6.66.83,4.48,2.08,8.37,3.76,11.59.6,1.16,1.27,2.22,1.99,3.21-.29.43-.6.9-.6.9-.09.13-.13.27-.16.42-.11.07-.2.08-.24.08-.53,0-1.61-.69-3.06-2.67-1.58-2.15-1.83-5.46-1.83-5.49-.04-.54-.47-.96-1.01-.99-.54-.02-1.01.36-1.1.89-.57,3.5,1.05,9.09,4.76,12.41,3.46,3.09,6.9,4.02,9.18,4.26.32.03.63-.08.86-.31.2-.2.31-.47.31-.75,0-.04,0-.07,0-.11l-.08-.82c-.04-.45-.38-.82-.82-.93-.02,0-2.26-.52-3.59-1.62-.5-.42-.77-.64-.77-.96,0-.21.12-.48.36-.87.17-.08.33-.19.44-.36,2.34,2.23,5.07,3.74,8.15,4.5,0,0,.05.01.05.01.17.04.35.04.51,0h.05c2.88-.73,5.46-2.13,7.7-4.13.08,0,.17.04.25.04,0,0,.24-.03.45-.06.44.65,2.17,3.2,2.17,3.2.21.3.54.47.9.46.52.61,2.39,2.79,2.39,2.79.35.41.96.49,1.4.19.3-.2.47-.54.47-.88,0-.17-.04-.34-.12-.49,0,0-1.33-2.54-1.7-3.25.06-.14.1-.28.1-.43,0-.21-.06-.42-.18-.6,0,0-.88-1.29-1.45-2.14,1.04-1.15,2.51-4.03,2.99-12.08.46-1.58.86-3.26,1.19-5.04,1.5,1.78,3.12,4.25,3.13,6.7,0,.06,0,.11.01.17.11.63.65,1.1,1.29,1.1.47,0,.9-.25,1.13-.65.88-1.43,1.27-2.82,1.27-4.6,0-.42-.03-.89-.07-1.4.61.5.79.87,1,1.32.2.45.67.75,1.18.75.72,0,1.31-.59,1.31-1.31-.03-1.55-.52-3.17-1.4-4.84.85-.85,3.97-3.97,3.97-3.97.46-.46.68-1.06.68-1.71Z"/>
    <path class="cls-3" d="M171.84,37.71c0-.96-.48-2.04-1.39-2.95-1.26-1.27-2.77-2.46-4.48-3.54.02-.02.12-.12.12-.12.45-.45.67-1.05.67-1.71,0-.75-.28-1.58-.84-2.34-1.33-1.79-2.89-3.44-4.62-4.91.66-.98,2-2.97,2-2.97.12-.18.18-.39.18-.59,0-.15-.04-.29-.1-.43.37-.71,1.7-3.24,1.7-3.24.08-.16.12-.33.12-.49,0-.34-.17-.68-.47-.88-.45-.3-1.05-.22-1.4.19,0,0-1.87,2.18-2.39,2.79-.36,0-.7.17-.9.47,0,0-1.22,1.81-1.9,2.81-2.92-1.92-6.12-3.32-9.53-4.15-.85-.65-1.78-1.16-2.75-1.55-.11-.36-.22-.7-.34-1.04.13-.2.28-.38.5-.6.44-.44,1.03-1.03,1.44-2.1.25-.65.39-1.35.39-2.01,0-1.23-.46-2.28-1.25-2.88l-.2-.15c-.25-.19-.56-.26-.87-.19-.3.07-.56.26-.71.53l-.12.23c-.73,1.36-1.54,2.32-2.46,2.95-.12-.05-.27-.12-.36-.17,0,0-.15-.07-.32-.15-.05-.58-.09-1.16-.09-1.7,0-1.53.2-2.86.56-3.51.21-.38.4-.47.43-.48.03,0,.2.1.38.46.01.02.03.04.04.07.23.39.65.63,1.09.63.7,0,1.28-.57,1.28-1.27,0-.11-.02-.25-.05-.36l-.02-.07c-.13-.36-.62-1.53-1.75-2.03-.5-.22-1.32-.39-2.37.07-.34.15-.66.37-.95.65-.56-.49-1.13-.77-1.73-.76-.68,0-1.29.36-1.7.99-.26.39-.52,1.02-.52,2.35,0,.5.05,1.13.14,1.86-.31-.02-.6.1-.82.32-.53.55-.82,1.33-.82,2.19,0,.14,0,.28.02.42.08.74.38,1.43.82,2.01-.38.33-.69.79-.88,1.44-.6.36-3.62,2.15-3.62,2.15-.69.4-1.12,1.15-1.23,2.11,0,0-.02.4-.02.4,0,.18.02.44.08.72-1.74.73-3.41,1.61-4.98,2.64-.85-1.32-1.54-2.74-2.03-4.24-.12-.38-.45-.66-.84-.73-.88-.14-1.77.05-2.51.55-.74.5-1.25,1.25-1.45,2.12-.02.08-.03.16-.03.24,0,.31.14.61.38.82,1.27,1.05,2.37,2.27,3.3,3.62-1.71,1.47-3.26,3.1-4.6,4.9-.56.76-.85,1.59-.85,2.35,0,.66.22,1.26.67,1.71,0,0,.05.05.12.12-1.71,1.08-3.22,2.27-4.48,3.54-.91.91-1.38,1.98-1.38,2.95,0,.65.22,1.25.68,1.71,0,0,3.12,3.12,3.97,3.97-.89,1.68-1.37,3.3-1.4,4.84h0c0,.74.58,1.32,1.3,1.32.53,0,1.01-.32,1.21-.82,0,.02-.01.04-.03.06.21-.45.39-.82,1-1.32-.05.51-.07.98-.07,1.4,0,1.74.37,3.09,1.22,4.51.21.45.66.74,1.17.74.72,0,1.31-.58,1.31-1.3.03-2.43,1.63-4.88,3.13-6.66.83,4.48,2.09,8.37,3.76,11.59.6,1.16,1.28,2.22,1.99,3.21-.29.43-.6.9-.6.9-.09.13-.13.27-.16.42-.11.07-.2.08-.24.08-.53,0-1.61-.69-3.06-2.67-1.58-2.15-1.83-5.46-1.83-5.49-.04-.54-.47-.96-1.01-.99-.54-.03-1.01.36-1.1.89-.58,3.5,1.05,9.09,4.76,12.4,3.46,3.09,6.9,4.02,9.18,4.26.32.03.64-.08.86-.31.2-.2.31-.47.31-.75,0-.04,0-.07,0-.11l-.08-.82c-.05-.45-.38-.83-.82-.93-.02,0-2.26-.53-3.59-1.62-.51-.42-.77-.64-.77-.96,0-.21.12-.48.36-.87.18-.08.33-.19.44-.36,2.34,2.22,5.07,3.74,8.15,4.5h.05c.17.06.34.06.51.01h.05c2.88-.73,5.46-2.13,7.7-4.13.08,0,.17.04.25.04,0,0,.24-.03.45-.06.44.65,2.17,3.2,2.17,3.2.2.3.54.47.9.47.52.61,2.39,2.79,2.39,2.79.35.41.95.49,1.4.19.3-.2.47-.54.47-.88,0-.17-.04-.34-.12-.49,0,0-1.33-2.54-1.7-3.24.06-.14.1-.28.1-.43,0-.21-.06-.42-.19-.6,0,0-.88-1.29-1.45-2.14,1.04-1.15,2.51-4.03,2.99-12.08.46-1.58.86-3.27,1.19-5.04,1.5,1.78,3.11,4.25,3.13,6.7,0,.06,0,.11.01.17.11.63.65,1.1,1.29,1.1.46,0,.9-.25,1.13-.65.88-1.43,1.27-2.82,1.27-4.6,0-.42-.03-.89-.08-1.4.61.5.79.87,1,1.32.2.45.67.75,1.18.75.72,0,1.31-.59,1.31-1.31-.03-1.55-.52-3.17-1.4-4.84.85-.85,3.97-3.97,3.97-3.97.46-.46.68-1.06.68-1.71Z"/>
    <path class="cls-4" d="M156.81,34.57c-.6-.27-1.21-.53-1.82-.77.38,2.72.94,6.18,1.17,8.96.35-2.55.57-5.28.65-8.19Z"/>
    <path class="cls-4" d="M150.97,32.49c-.56-.15-1.12-.28-1.68-.4-1.93,2.12-4.7,3.45-7.79,3.45s-5.87-1.33-7.8-3.45c-2.1.45-4.16,1.09-6.16,1.91.02.03.03.07.04.1h5.62s-5.57.7-5.57.7c-.01.08-.03.15-.05.22l9.4,6.58-9.78-5.96c-.05.05-.11.1-.18.15l2.05,6.77-2.72-6.52s-.08,0-.12.01c.76,16.79,6.13,27.32,15.26,29.81,4.34-1.19,7.83-4.2,10.38-8.83.76-3,.99-6.6.99-10.61,0-6.47-.72-11.66-1.89-13.92ZM151.11,51.04c-1.93.28-4.1.47-6.41.56v6.41c-1.04.04-2.11.07-3.2.07s-2.17-.02-3.21-.07v-6.41c-2.31-.09-4.48-.29-6.41-.56v-6.41c1.93.28,4.1.47,6.41.56v-6.41c1.05.04,2.12.06,3.21.06s2.16-.02,3.2-.06v6.41c2.31-.09,4.48-.29,6.41-.56v6.41Z"/>
    <g>
      <path class="cls-2" d="M160.27,26.2c-1.1.98.53,2.09-.03,2.59-.24.22-.51.02-.74-.23-.3-.33-.47-.7-.54-1.01l-.73.53c.16.34.43.73.67,1.01.6.67,1.4,1.14,2.18.44,1.09-.97-.52-2.1-.03-2.54.26-.23.58.09.76.29.21.23.37.5.46.79l.67-.5c-.11-.26-.33-.59-.58-.88-.54-.6-1.37-1.13-2.1-.48Z"/>
      <path d="M169.71,35.51c-1.48-1.5-3.31-2.88-5.43-4.09l1.07-1.07c.57-.57.45-1.67-.28-2.67-1.5-2.02-3.24-3.81-5.17-5.35l2.53-3.75-.22-.46,1.94-3.71-2.73,3.19-.49-.03-2.47,3.67c-3.09-2.19-6.59-3.76-10.28-4.63-.94-.75-2.01-1.35-3.17-1.75-.18-.65-.39-1.3-.64-1.93.23-.55.56-.89.91-1.24.41-.41.87-.87,1.2-1.73.21-.55.32-1.11.32-1.63,0-.87-.29-1.63-.83-2.04l-.2-.15-.12.23c-.85,1.58-1.81,2.7-2.94,3.43-.37.24-.68.1-1.3-.22-.25-.13-.53-.27-.84-.39-.27-2.25-.21-5.07.54-6.43.78-1.41,2.02-1.33,2.69.02h0c.04.06.1.1.18.1.12,0,.21-.1.21-.21,0-.01,0-.02,0-.04h0s0-.02-.01-.04c0,0,0-.01,0-.02-.11-.32-.84-2.12-2.69-1.32-.51.22-.95.69-1.31,1.34-1.05-1.54-2.05-1.71-2.61-.86-.56.85-.42,3.23.39,6.79-.96-.69-1.46-1.61-1.71-2.12-.89.93-.67,2.97.86,3.98-.23.2-.38.31-.38.32-.65.38-1.06.8-1.2,1.72-.15.09-3.98,2.36-3.98,2.36-.4.23-.65.69-.71,1.3,0,.09-.02.19-.02.29,0,.43.1.88.31,1.13,0,.04.03.16.03.16,0,.01,0,.02,0,.03-2.34.89-4.57,2.07-6.62,3.52l-.39-.58c-1.03-1.53-1.8-3.15-2.34-4.82-.59-.09-1.21.02-1.74.38-.53.36-.87.89-1.01,1.47,1.35,1.12,2.56,2.44,3.59,3.97l.44.65c-1.92,1.54-3.66,3.34-5.16,5.35-.74,1-.85,2.1-.28,2.67l1.07,1.07c-2.12,1.21-3.94,2.59-5.43,4.09-1.08,1.09-1.4,2.47-.71,3.16l4.52,4.53c-1.06,1.78-1.62,3.47-1.64,5.05,0,.14.11.25.24.25.1,0,.19-.07.22-.16.49-1.03.94-1.66,3.32-3.03-.24,1.43-.37,2.59-.37,3.56,0,1.65.35,2.82,1.12,4.06.04.09.12.13.21.13.14,0,.25-.1.25-.24.05-3.6,3.03-7.11,4.81-8.9,0,0,.03-.04.07-.08.78,5.29,2.12,9.78,4.01,13.42.71,1.36,1.48,2.59,2.33,3.69l-1.01,1.5.08.18c-1.32,1.83-3.39.24-5.27-2.31-1.8-2.44-2.04-6.05-2.04-6.05-.5,3.05.95,8.35,4.42,11.44,2.82,2.52,5.88,3.71,8.58,4l-.08-.82s-2.48-.56-4.03-1.84c-1.41-1.16-1.53-1.88-.38-3.61h.2s.72-1.06.72-1.06c2.39,2.59,5.25,4.32,8.56,5.14h.05s.05,0,.05,0c2.89-.72,5.45-2.13,7.63-4.2.18.05.37.09.57.09.16,0,.32-.03.48-.06.16.04.31.06.48.06.03,0,.06,0,.09,0l2.45,3.62.49-.03,2.73,3.19-1.94-3.71.22-.46-1.99-2.93c2.29-1.45,3.08-7.43,3.35-12.07.65-2.2,1.17-4.6,1.55-7.19l.07.09c1.79,1.79,4.78,5.32,4.81,8.93.02.12.12.21.24.21.09,0,.17-.05.21-.12.77-1.24,1.12-2.41,1.12-4.07,0-.97-.13-2.14-.37-3.56,2.38,1.37,2.83,2,3.32,3.03.04.08.12.14.22.14.14,0,.25-.11.25-.25-.03-1.56-.59-3.27-1.64-5.03l4.52-4.53c.69-.69.37-2.07-.71-3.16ZM149.12,17.3c6.17,1.7,11.71,5.42,15.59,10.64.6.81.73,1.69.33,2.1l-.05.05c.01-.08.02-.15.02-.23,0-.52-.27-1.04-.53-1.42t0,0s-.05-.03-.07-.02c-.02.02-.03.04-.02.07.32.55.59,1.54.2,1.99l-.11.12c.01-.08.02-.15.02-.23,0-.52-.26-1.04-.53-1.42,0,0,0,0,0,0-.01-.02-.04-.03-.07-.01-.02.01-.03.04-.02.07.32.55.59,1.54.2,1.99l-.11.11c.01-.08.02-.15.02-.23,0-.52-.27-1.04-.53-1.42,0,0,0,0,0,0-.02-.02-.05-.03-.07-.02-.02.02-.03.04-.02.07.32.55.59,1.54.2,1.99l-.11.11c.01-.08.02-.15.02-.23,0-.52-.27-1.04-.53-1.42,0,0,0,0,0,0-.01-.02-.04-.03-.07-.02-.02.02-.03.05-.02.07.32.55.59,1.54.2,1.99l-.11.11c.01-.08.02-.15.02-.23,0-.52-.27-1.04-.53-1.42,0,0,0,0,0,0-.02-.02-.05-.03-.07-.01-.02.02-.03.05-.02.07.32.55.59,1.54.2,1.99l-.11.11c.01-.08.02-.15.02-.23,0-.52-.26-1.04-.53-1.42,0,0,0,0,0,0-.02-.02-.05-.03-.07-.01-.02.01-.03.04-.02.07.32.55.59,1.54.2,1.99l-.11.11c.01-.08.02-.15.02-.23,0-.52-.26-1.04-.53-1.42,0,0,0,0,0,0-.01-.02-.04-.03-.07-.01-.03.01-.03.04-.02.07.32.55.59,1.54.2,1.99l-.11.11c.01-.08.02-.15.02-.23,0-.52-.27-1.04-.53-1.42,0,0,0,0,0,0-.02-.02-.05-.03-.07-.02-.02.02-.03.04-.02.07.32.55.59,1.54.2,1.99h-.01c0-.45-.16-.98-.5-1.49-2.13-3.21-4.99-5.76-8.27-7.51l-.05-.03c0-.45-.04-.89-.09-1.32.25.34.6.61.96.8.49.26.83.34,1.13.42l.35-.77c-.31-.04-.68-.12-.99-.29-.7-.37-.97-1.06-.59-1.76.35-.67,1.05-.92,1.73-.56.33.17.58.41.8.74l.49-.73c-.29-.29-.6-.55-.96-.75-1.18-.62-2.37-.47-3.03.78-.09.18-.16.35-.2.52-.53-1.87-1.56-3.53-2.93-4.83l.23.06ZM157.46,32.69l1.09.63c.75.46,1.4.85,2.06.84,0,.06-.01.11-.03.17-.69.25-1.38-.07-2.14-.49,0-.05,0-.1,0-.15v-.14s-.12-.06-.12-.06c-1.18-.57-2.39-1.07-3.61-1.52l2.65-2.65c.89.9,1.72,1.87,2.46,2.93l-.05-.03c-.4-.22-.81-.45-1.26-.63h0s0,0,0,0c-.02,0-.05,0-.06.03-.01.02,0,.05.02.07l1.09.63.52.3c.03.05.07.1.11.16.12.18.21.36.28.53-.38-.13-.78-.34-1.19-.57-.4-.22-.82-.45-1.27-.63h0s0,0,0,0c-.03-.01-.05,0-.06.03-.01.02,0,.05.02.07l1.09.63c.52.32,1.02.62,1.5.76.03.12.05.23.06.34-.59.01-1.18-.31-1.84-.69-.4-.22-.81-.45-1.27-.63h0s0,0,0,0c-.02,0-.05,0-.06.03,0,.02,0,.05.02.07ZM160.44,34.61s-.03.05-.05.07c-.35.35-1.05.3-1.79-.12,0,0-.09-.05-.17-.1,0-.13,0-.27.01-.4.7.41,1.34.71,2,.56ZM163.95,39.99c.46.42.97.89,1.51,1.2.11.19.19.38.25.57-.66-.14-1.36-.67-2.19-1.34-.02-.02-.05-.01-.07,0-.02.02-.02.05,0,.07.7.64,1.48,1.35,2.31,1.51.02.1.02.19.02.27-.83.13-1.65-.45-2.77-1.35-.02-.02-.05-.01-.07,0-.02.02-.01.05,0,.07.85.78,1.8,1.65,2.8,1.54,0,.04-.02.07-.03.11-.98.48-1.89-.16-3.22-1.22-.02-.02-.05-.01-.07,0-.02.02-.02.05,0,.07.87.8,1.92,1.76,3.01,1.5-.98.81-2.28-.18-2.81-.66-.78-.68-1.66-1.32-2.61-1.91-.57-.37-1.2-.54-1.76-.5l2.55-2.56c1.61.91,2.97,1.92,4.02,2.99.13.13.25.28.36.42-.35-.22-.73-.51-1.19-.88-.02-.02-.05-.01-.07,0-.02.02-.02.05,0,.07ZM158.16,39.41c.09-1.06.16-2.15.21-3.26.72.32,1.4.65,2.05,1l-2.26,2.26ZM155.49,44.29c-.08-.03-.16-.06-.24-.09,0-.22-.01-.45-.02-.68.02,0,.05.02.07.03.2.07.44.16.45.26h.01c0,.2.01.41.02.61-.09-.04-.19-.08-.28-.12ZM155.79,44.97h0c0,.21,0,.41,0,.62-.09-.04-.19-.09-.28-.12-.08-.03-.16-.07-.24-.1,0-.22,0-.45-.01-.69.02,0,.05.02.07.03.21.08.44.16.45.27ZM155.45,43.13c-.07-.02-.16-.05-.23-.09,0-.22-.02-.45-.03-.69.02,0,.05.02.07.02.2.07.44.15.45.24h.01c0,.2.02.41.03.62-.1-.04-.2-.08-.29-.12ZM155.39,41.96c-.07-.02-.16-.05-.23-.08-.02-.23-.03-.46-.04-.69.02,0,.05.02.07.02.2.06.45.14.45.24h.01c.01.21.03.42.04.63-.1-.04-.2-.08-.29-.11ZM155.31,40.8c-.08-.02-.16-.05-.23-.08-.02-.23-.04-.46-.05-.69.02,0,.04.02.06.02.19.05.45.13.46.22h.01c.02.21.04.42.05.63-.1-.04-.2-.07-.29-.1ZM155.21,39.63c-.08-.02-.15-.04-.22-.07-.02-.23-.04-.46-.07-.69.02,0,.04.01.06.02.19.05.46.12.47.21h0c.02.21.04.41.06.62-.1-.04-.2-.07-.3-.1ZM155.08,38.46c-.07-.02-.15-.04-.22-.06-.03-.23-.05-.47-.08-.7.02,0,.03,0,.05.01.21.05.46.1.47.2h0c.03.21.05.42.08.64-.1-.04-.21-.07-.3-.09ZM152.22,59.42c-.17-.13-.38-.28-.35-.38h0c.05-.19.1-.38.15-.59.08.07.17.13.25.19.16.11.38.25.36.35-.06.22-.12.43-.18.63-.08-.07-.16-.13-.23-.19ZM152.29,60.09c-.08.22-.16.44-.24.64-.08-.08-.15-.15-.23-.21-.16-.13-.33-.28-.31-.37.07-.18.13-.38.2-.58.08.07.17.14.25.2.14.1.32.24.33.32ZM152.52,58.27c-.17-.12-.38-.26-.37-.36.04-.2.09-.4.13-.6.09.06.18.12.27.18.17.1.39.24.38.33-.05.22-.1.43-.15.64-.08-.07-.17-.13-.25-.19ZM140.74,35.07h-1l2.7-4.71h1l-2.7,4.71ZM143.25,35.07h-1l-.5-.88.5-.87,1,1.75ZM120.56,41.44s-.05-.02-.07,0c-1.33,1.06-2.24,1.7-3.22,1.22-.01-.04-.02-.07-.03-.11,1.01.11,1.96-.76,2.81-1.54.02-.02.02-.05,0-.07-.02-.02-.05-.02-.07,0-1.12.9-1.95,1.49-2.77,1.35,0-.09,0-.18.02-.27.83-.16,1.61-.87,2.31-1.51.02-.02.02-.05,0-.07-.02-.02-.05-.02-.07,0-.83.67-1.54,1.2-2.19,1.34.05-.18.14-.37.25-.57.54-.31,1.05-.78,1.51-1.2.02-.02.02-.05,0-.07-.02-.02-.05-.02-.07,0-.46.37-.84.66-1.19.88.11-.14.23-.29.36-.42,1.05-1.07,2.42-2.08,4.02-2.99l2.56,2.56c-.56-.04-1.19.14-1.76.51-.95.59-1.83,1.23-2.61,1.9-.53.49-1.84,1.48-2.81.67,1.09.26,2.14-.7,3.01-1.5.02-.02.02-.05,0-.07ZM122.57,37.16c.65-.35,1.34-.69,2.05-1.01.05,1.12.12,2.21.21,3.27l-2.26-2.26ZM124.66,33.49l-.13.06v.14s0,.09,0,.14c-.76.42-1.44.74-2.14.49-.01-.05-.02-.11-.03-.17.66.01,1.32-.39,2.06-.84l1.09-.63s.03-.04.02-.07c-.01-.02-.04-.03-.06-.03,0,0,0,0,0,0h0c-.45.18-.86.41-1.27.63-.67.37-1.26.7-1.84.69,0-.11.03-.22.06-.34.48-.14.98-.44,1.5-.76l1.09-.63s.03-.04.02-.07c0-.02-.04-.04-.06-.03,0,0,0,0,0,0h0c-.45.18-.86.41-1.26.63-.41.23-.81.44-1.19.57.07-.18.16-.36.28-.53.03-.05.07-.1.1-.15l.52-.3,1.09-.63s.03-.04.02-.07c-.01-.02-.04-.04-.06-.03t0,0h0c-.45.17-.86.4-1.26.63l-.05.03c.74-1.05,1.57-2.03,2.46-2.93l2.65,2.65c-1.22.44-2.43.95-3.61,1.52ZM124.56,34.46l-.17.1c-.73.43-1.43.48-1.79.12-.02-.02-.03-.05-.05-.07.66.16,1.29-.14,2-.56,0,.14,0,.27.01.4ZM125.93,29.01c.34-.32.68-.63,1.04-.93l2.37,3.52c-.2.07-.41.14-.61.21l-2.8-2.8ZM128.39,26.96c.75-.54,1.54-1.04,2.35-1.49h.02c.08,1.92.67,3.71,1.64,5.25-.42.1-.84.21-1.26.33l-2.76-4.09ZM137.28,20.41c-.02.29-.05.7-.08,1.2-.11.19-.24.36-.39.52-.04.04-.09.08-.14.12-.04-.09-.08-.17-.13-.26l-.11-.21-.2.12c-.17.1-.33.22-.48.35-.09.06-.17.12-.25.19.02-.24,0-.49-.02-.72.03-.04.05-.09.08-.13.53-.23.98-.6,1.33-1.06.13-.05.26-.09.4-.13ZM137.25,19.94s.01-.04.02-.06c.01,0,.03,0,.04,0,0,0,0,.02,0,.04-.02,0-.04,0-.06.01ZM135.47,28.84c.31.32.52.7.66,1.11-.36.02-.72.1-1.07.24-.19-.12-.38-.26-.54-.43-.47-.49-.75-1.12-.81-1.79.67.09,1.29.38,1.76.87ZM133.48,26.98c-.12-.19-.24-.4-.31-.62-.14-.41-.19-.85-.15-1.27.02-.23.11-.45.19-.68.56.36.99.88,1.21,1.52.14.41.19.85.15,1.28,0,0,0,.01,0,.02-.34-.14-.71-.22-1.09-.24ZM137.66,31.02c.63.24,1.14.7,1.48,1.27-.64.2-1.33.21-1.96-.04-.63-.24-1.14-.7-1.48-1.27.64-.2,1.33-.21,1.96.04ZM137.57,30.17c-.17-.07-.35-.11-.53-.15-.3-.45-.48-.97-.5-1.52.67.11,1.27.44,1.73.95.44.49.68,1.11.73,1.76-.38-.46-.86-.83-1.43-1.04ZM136.28,27.51l-.24-.02v.24c-.01.2,0,.4.03.6,0,.03,0,.05,0,.08-.1-.14-.2-.26-.32-.38-.16-.16-.34-.3-.52-.43-.05-.26-.07-.52-.06-.77,0-.03,0-.05,0-.08,0-.09.02-.18.03-.26.05-.26.16-.5.27-.74.52.41.9.98,1.05,1.63.01.06.02.12.03.18-.1-.02-.19-.03-.29-.04ZM136.24,20.18c-.23.38-.54.68-.9.92-.12-.35-.29-.68-.52-.98.07-.22.16-.43.28-.62.02-.02.04-.04.05-.07.48.12.91.22,1.3.29-.06.16-.13.31-.22.46ZM135.33,23.26c.15-.18.32-.34.51-.49.23.53.33,1.11.23,1.68-.02.09-.04.18-.06.27-.02.06-.04.11-.06.17-.08-.06-.15-.12-.23-.17l-.2-.13-.12.21c-.1.17-.18.35-.25.54-.03.05-.05.11-.07.16-.02-.06-.02-.12-.05-.18-.08-.25-.2-.48-.34-.7.01-.08.03-.17.05-.25,0-.02.01-.03.02-.04.26-.32.46-.68.59-1.07ZM134.69,22.86h0c-.05.44-.19.86-.42,1.23-.25-.27-.55-.5-.88-.68-.03-.23-.04-.46-.01-.69h0c.07-.68.38-1.29.85-1.77.36.57.54,1.23.47,1.9ZM133.16,21.72c-.13-.2-.28-.38-.45-.55-.03-.21-.05-.43-.03-.65h0c.04-.57.24-1.09.56-1.53.12.02.26.05.42.07.23.45.36.94.34,1.45-.37.34-.66.75-.84,1.2ZM132.9,23.08c0,.19.02.39.05.58-.05.13-.1.26-.13.39-.09.2-.15.41-.2.62-.21-.17-.43-.32-.67-.43-.1-.19-.19-.39-.25-.61-.09-.33-.12-.66-.1-.99.02-.33.12-.66.25-.97.49.36.85.84,1.05,1.41ZM132.57,25.77c.03.25.08.5.16.74.11.32.26.61.45.88,0,.09.02.18.03.27-.32-.14-.65-.24-1-.28-.16-.15-.31-.31-.44-.49-.38-.56-.55-1.21-.51-1.88,0,0,0-.02,0-.03.49.15.94.41,1.29.78ZM131.84,28.32c.54-.02,1.07.11,1.53.36.16.52.43,1,.81,1.4.05.05.1.08.14.13-.28,0-.56.01-.83.07-.2-.09-.4-.19-.58-.32-.55-.41-.92-.98-1.08-1.64ZM135.27,31.17c.26.45.6.83,1.02,1.12-.22.08-.43.18-.64.3-.21-.02-.43-.05-.65-.12-.64-.21-1.18-.63-1.55-1.19.58-.22,1.21-.27,1.82-.11ZM137.66,32.87c.23.04.47.05.7.05.45.09.87.29,1.25.58-.52.43-1.15.68-1.82.69-.68.02-1.31-.23-1.85-.64.49-.4,1.08-.64,1.72-.68ZM139.56,30.36h1l.68,1.2-.5.87-1.18-2.07ZM144.62,32.91c.23,0,.47,0,.7-.05.64.04,1.23.28,1.72.68-.53.41-1.17.65-1.84.64-.67-.01-1.3-.26-1.82-.69.37-.29.8-.49,1.25-.58ZM154.54,44.29c-.08-.03-.16-.06-.23-.09,0-.22-.01-.45-.02-.68.02,0,.04.02.07.03.2.07.45.16.45.26h.01c0,.2.01.41.02.61-.09-.04-.19-.08-.29-.12ZM154.83,44.97h0c0,.21,0,.41,0,.62-.09-.04-.19-.09-.28-.12-.08-.03-.16-.07-.24-.1,0-.22,0-.45-.01-.69.02,0,.05.02.07.03.21.08.44.16.44.27ZM154.49,43.13c-.07-.02-.16-.05-.23-.09,0-.22-.02-.45-.03-.69.02,0,.04.02.07.02.2.07.44.15.45.24h.01c0,.2.02.41.03.62-.1-.04-.2-.08-.29-.12ZM154.44,41.96c-.08-.02-.16-.05-.23-.08-.01-.23-.03-.46-.04-.69.02,0,.05.02.07.02.2.06.45.14.45.24h0c.01.21.03.42.04.63-.1-.04-.2-.08-.29-.11ZM154.36,40.8c-.08-.02-.16-.05-.23-.08-.02-.23-.04-.46-.06-.69.02,0,.04.02.06.02.19.05.45.13.46.22h.01c.02.21.03.42.05.63-.1-.04-.2-.07-.29-.1ZM154.26,39.63c-.08-.02-.15-.04-.22-.07-.02-.23-.04-.46-.07-.69.02,0,.04.01.06.02.19.05.46.12.47.21h0c.02.21.04.41.06.62-.1-.04-.2-.07-.3-.1ZM154.13,38.46c-.07-.02-.15-.04-.22-.06-.03-.23-.06-.47-.09-.7.02,0,.04,0,.05.01.21.05.46.1.47.2h0c.03.21.05.42.08.64-.1-.04-.21-.07-.3-.09ZM153.59,44.29c-.21-.08-.44-.16-.45-.27h0c0-.2-.01-.39-.02-.59.09.04.19.08.28.11.2.07.45.16.45.26h0c0,.2.01.41.02.61-.1-.04-.19-.08-.29-.12ZM153.88,44.97h0c0,.21,0,.41,0,.62-.09-.04-.19-.09-.28-.12-.2-.08-.44-.17-.45-.28,0-.2,0-.4-.01-.6.09.04.19.08.28.12.21.08.44.16.44.27ZM153.54,43.13c-.2-.07-.44-.15-.45-.26h0c0-.2-.02-.4-.03-.59.1.04.19.08.29.11.2.07.44.15.45.24h.01c0,.2.02.41.03.62-.1-.04-.2-.08-.29-.12ZM153.49,41.96c-.2-.07-.45-.15-.46-.25h0c-.01-.2-.03-.4-.04-.6.1.04.2.07.29.1.2.06.45.14.45.24h0c.01.21.03.42.04.63-.1-.04-.2-.08-.29-.11ZM153.41,40.8c-.2-.06-.46-.14-.46-.25h0c-.02-.2-.03-.4-.05-.6.1.04.2.07.29.09.19.05.45.13.46.22h.01c.02.21.03.42.05.63-.1-.04-.2-.07-.29-.1ZM152.91,52.71c.09.05.18.1.27.14.19.09.42.21.41.31h.01c-.02.21-.04.42-.06.62-.09-.06-.19-.11-.28-.16-.18-.09-.4-.21-.41-.31.02-.2.04-.4.06-.61ZM153.37,52.46c-.18-.09-.41-.2-.42-.31.02-.2.03-.41.05-.61.08.05.17.09.26.13.26.12.43.21.42.33h.02c-.01.21-.03.41-.05.62-.09-.06-.19-.11-.28-.15ZM153.44,51.27c-.19-.09-.41-.19-.4-.29h0c.01-.2.02-.41.04-.61.08.04.16.08.24.11.32.13.45.21.44.34h.01c-.01.2-.03.4-.04.6-.1-.06-.2-.11-.3-.16ZM153.49,50.08c-.22-.09-.39-.17-.39-.26h0c0-.2.02-.39.02-.59.09.05.19.1.28.14.19.08.43.19.42.28h.01c0,.19-.02.39-.03.58-.11-.06-.22-.11-.32-.15ZM153.58,48.97c-.2-.09-.44-.19-.44-.3,0-.2.01-.4.02-.6.09.04.18.09.26.12.26.11.44.19.44.3h.01c0,.2-.01.41-.02.61-.09-.05-.18-.1-.27-.13ZM153.59,47.79c-.2-.08-.42-.18-.42-.29h0c0-.2,0-.4,0-.59.09.04.18.08.27.12.21.08.44.18.44.29h0c0,.2,0,.4,0,.61-.1-.05-.2-.1-.29-.14ZM153.61,46.62c-.2-.08-.43-.17-.43-.28h0c0-.2,0-.39,0-.59.1.05.19.09.28.12.2.08.44.17.44.27h0c0,.09,0,.18,0,.28,0,.11,0,.22,0,.33-.09-.05-.19-.09-.29-.13ZM153.97,37.29c-.07-.02-.14-.03-.21-.05-.03-.21-.06-.42-.09-.63.02,0,.03,0,.05.01.21.04.46.09.48.19h0c.03.18.06.37.08.56-.1-.03-.21-.06-.31-.08ZM153.8,36.19c-.07-.01-.14-.03-.21-.04-.04-.21-.07-.42-.11-.62.02,0,.04,0,.05.01.19.03.46.07.48.16.04.19.07.38.1.57-.1-.03-.21-.05-.31-.07ZM153.6,35.1c-.07-.01-.14-.02-.21-.04-.05-.23-.1-.45-.15-.67,0,0,.02,0,.03,0,.2.03.47.08.51.17.04.19.09.39.13.59-.1-.02-.21-.04-.3-.06ZM152.17,30.65c-.09.03-.19.06-.27.09-.02,0-.04.01-.06.02-.1-.15-.21-.3-.31-.43.04-.07.09-.15.13-.18.18.13.36.29.52.49ZM152,29.88c.07.02.14.03.21.06-.02.02-.03.05-.05.07h0c-.05-.05-.11-.09-.17-.13ZM152.47,31.07c.12.19.24.4.35.63-.1-.01-.2-.02-.29-.02-.06,0-.13,0-.19-.01-.09-.18-.18-.36-.27-.52.2-.07.36-.12.4-.08ZM152.47,30.34c.05-.07.09-.15.13-.18.18.13.36.29.52.49-.1.03-.19.06-.27.09-.02,0-.04.01-.06.02-.1-.15-.21-.3-.32-.43ZM153.06,32.24c.08.21.17.44.25.67-.1-.02-.2-.04-.29-.06-.07-.01-.15-.03-.23-.04-.08-.24-.17-.47-.26-.69.22.01.47.03.53.12ZM152.94,33.28c.21.04.48.08.54.18.05.18.11.37.16.57-.1-.03-.21-.05-.31-.06-.06-.01-.14-.02-.21-.04-.06-.22-.12-.43-.18-.64h0ZM153.74,32.81c-.08-.24-.17-.47-.26-.69.21.01.47.03.53.12.09.21.17.44.25.67-.1-.02-.2-.04-.29-.06-.07-.01-.15-.03-.23-.04ZM153.48,31.68c-.06,0-.13,0-.19-.01-.09-.18-.17-.36-.27-.52.2-.07.35-.12.4-.08.12.19.24.4.35.63-.1-.01-.2-.02-.3-.02ZM152.73,29.73c-.33-.2-.68-.33-1.08-.33-.04,0-.08,0-.12.01-.1,0-.19.02-.27.05.56-1.23.9-2.58.96-4l.03.02c.81.44,1.6.94,2.35,1.48l-1.87,2.77ZM151.2,26.9c-.13.19-.28.35-.44.49-.35.04-.68.14-1,.28.01-.09.03-.18.03-.27.19-.27.34-.56.45-.88.08-.24.14-.49.16-.74.36-.37.8-.63,1.29-.78,0,0,0,.02,0,.03.05.67-.13,1.32-.51,1.88ZM151.26,29.95s-.03.05-.05.07h0s-.03-.02-.04-.03c.01-.02.03-.03.04-.05.02,0,.03,0,.05.01ZM151.28,23.63c-.06.22-.15.42-.26.61-.24.12-.47.26-.67.43-.05-.21-.11-.42-.2-.62-.04-.13-.08-.26-.13-.39.04-.19.05-.38.05-.58.2-.57.56-1.05,1.05-1.41.14.31.23.64.25.97.02.33,0,.66-.1.99ZM150.27,21.17c-.17.17-.32.35-.45.55-.19-.45-.48-.86-.84-1.2-.02-.65.18-1.27.54-1.8.45.5.74,1.12.78,1.79h0c.01.23,0,.45-.04.66ZM149.96,25.09c.04.43,0,.86-.15,1.27-.08.22-.19.43-.31.62-.38.02-.74.11-1.09.24,0,0,0,0,0-.02-.04-.43,0-.86.15-1.28.22-.64.65-1.16,1.21-1.52.08.22.16.45.19.68ZM149.27,27.97c-.06.67-.33,1.3-.81,1.79-.16.17-.35.31-.54.43-.35-.14-.7-.22-1.07-.24.13-.41.35-.79.65-1.11.47-.49,1.09-.78,1.76-.87ZM147.96,25.31c-.02.06-.03.12-.05.18-.02-.05-.05-.11-.07-.16-.07-.18-.15-.37-.25-.54l-.12-.21-.2.13c-.08.05-.16.11-.23.17-.02-.06-.05-.11-.06-.17-.02-.09-.04-.18-.06-.27-.1-.57,0-1.15.23-1.68.19.14.36.31.51.49.13.39.33.75.59,1.07,0,.02,0,.03.01.04.02.08.04.17.05.25-.14.22-.25.45-.34.7ZM147.49,25.74c.11.24.23.48.27.74.02.09.03.17.03.26,0,.02,0,.05,0,.08.01.26,0,.52-.06.78-.18.13-.36.27-.52.43-.12.12-.22.25-.32.39,0-.03,0-.05,0-.08.03-.2.04-.4.03-.6v-.24s-.25.02-.25.02c-.1,0-.19.02-.29.04.01-.06.02-.12.03-.18.15-.65.53-1.22,1.05-1.63ZM146.44,28.5c-.03.55-.2,1.07-.5,1.52-.18.04-.35.08-.53.15-.57.22-1.05.58-1.43,1.04.05-.65.29-1.27.73-1.76.45-.51,1.06-.84,1.73-.95ZM145.32,31.02c.63-.24,1.32-.24,1.96-.04-.34.58-.85,1.03-1.49,1.27-.63.24-1.32.24-1.96.04.34-.58.85-1.03,1.48-1.27ZM146.69,32.3c.42-.29.76-.67,1.02-1.12.6-.16,1.23-.11,1.82.11-.37.56-.91.98-1.55,1.19-.21.07-.43.11-.65.12-.2-.12-.42-.22-.64-.3ZM149.48,30.28c-.28-.06-.55-.08-.83-.07.05-.04.1-.08.14-.13.39-.4.66-.88.82-1.4.47-.26.99-.38,1.54-.36-.17.65-.54,1.23-1.08,1.64-.18.13-.38.24-.58.32ZM150.89,30.32c.11.1.22.2.32.33-.1.03-.19.06-.27.09-.06.02-.13.04-.19.07-.13-.05-.24-.09-.25-.1.14-.12.26-.26.38-.39ZM150.94,31.21c.05-.02.11-.03.15-.05.21-.08.37-.13.42-.08.12.19.24.4.35.63-.1-.01-.2-.02-.3-.02-.22-.01-.48-.03-.56-.12-.05-.08-.1-.16-.15-.23l.08-.12ZM151.55,32.12c.22.01.49.03.55.12.08.21.17.44.25.67-.1-.02-.2-.04-.29-.06-.19-.03-.45-.08-.53-.16-.08-.21-.16-.41-.24-.59.09,0,.18.01.26.02ZM151.99,33.28c.21.04.48.08.54.18.05.18.11.37.16.57-.1-.03-.21-.05-.31-.06-.18-.03-.43-.07-.49-.15-.05-.2-.11-.4-.17-.59.09.02.18.04.27.05ZM152.31,34.4c.2.03.47.08.51.17.04.19.09.39.13.59-.1-.02-.21-.04-.3-.06-.19-.03-.42-.07-.48-.15-.04-.21-.09-.41-.14-.61.09.02.19.04.29.06ZM152.58,35.54c.19.03.45.07.48.16.03.19.07.38.1.57-.1-.03-.21-.05-.31-.07-.2-.04-.43-.08-.47-.17-.03-.19-.07-.37-.1-.55.1.02.21.04.3.06ZM152.77,36.62c.21.04.47.09.48.19h0c.03.18.06.37.08.56-.1-.03-.21-.06-.31-.08-.2-.04-.44-.1-.47-.19-.03-.18-.05-.36-.08-.54.1.03.2.05.3.07ZM152.92,37.72c.21.05.46.1.47.2h0c.03.21.05.42.08.64-.1-.04-.2-.07-.3-.09-.19-.05-.43-.11-.47-.2-.03-.21-.05-.42-.08-.62.1.03.2.06.29.08ZM153.07,38.89c.19.05.46.12.46.21h0c.02.21.04.41.06.62-.1-.04-.2-.07-.3-.1-.2-.06-.44-.12-.47-.22-.02-.2-.04-.4-.06-.6.1.03.2.06.3.09ZM152.79,53.86c.09.05.18.11.27.15.19.1.42.22.41.32h0c-.02.21-.05.42-.08.62-.09-.06-.18-.11-.27-.16-.18-.1-.41-.22-.41-.33.02-.2.05-.4.07-.6ZM152.92,55.18c.18.09.41.22.4.32h0c-.03.21-.06.42-.09.63-.09-.06-.18-.12-.27-.17-.19-.11-.42-.24-.4-.34h0c.03-.19.06-.39.08-.59.09.06.18.11.27.16ZM152.74,56.33c.17.1.41.23.39.33h0c-.04.21-.07.42-.11.63-.08-.06-.17-.12-.26-.17-.18-.11-.39-.24-.39-.35.04-.2.07-.39.1-.6.09.06.18.12.27.17ZM152.88,59.74s.02.02.03.03c.14.1.32.24.33.32-.08.22-.16.44-.24.64-.08-.08-.16-.15-.23-.21-.04-.03-.08-.07-.12-.1.08-.22.16-.44.23-.67ZM153.17,59.42c-.05-.04-.11-.08-.16-.12.06-.22.12-.45.18-.68.01,0,.02.01.03.02.16.11.38.25.36.35-.06.22-.12.43-.18.63-.08-.07-.16-.13-.23-.19ZM153.47,58.27c-.06-.04-.11-.08-.17-.12.05-.23.1-.46.15-.69.01,0,.03.02.04.03.17.1.39.24.38.33-.05.22-.1.43-.15.64-.08-.07-.17-.13-.25-.19ZM153.72,57.11c-.06-.04-.12-.08-.18-.12.04-.23.08-.46.12-.69h0s.03.02.04.03c.17.1.41.23.39.33h0c-.04.21-.08.42-.12.63-.09-.06-.17-.12-.26-.17ZM153.92,55.95c-.06-.04-.13-.07-.19-.11.04-.23.07-.46.1-.69.02,0,.03.02.05.03.17.09.41.22.4.32h0c-.03.21-.06.42-.09.63-.09-.06-.18-.12-.27-.17ZM154.08,54.79c-.07-.04-.14-.08-.2-.12.03-.23.05-.46.08-.69.02.01.03.02.05.03.19.1.42.22.41.32h0c-.02.21-.05.42-.08.62-.09-.06-.18-.11-.27-.16ZM154.21,53.62c-.07-.03-.14-.07-.2-.11.02-.23.04-.46.06-.69h0s.04.02.06.03c.19.09.42.21.41.31h.01c-.02.21-.04.42-.06.62-.09-.06-.19-.11-.28-.16ZM154.32,52.46c-.07-.03-.14-.07-.21-.11.02-.23.04-.47.05-.7.01,0,.03.02.04.02.26.12.43.21.43.33h.01c-.01.21-.03.41-.05.62-.09-.06-.19-.11-.28-.15ZM154.39,51.27c-.07-.03-.14-.06-.2-.1.01-.24.03-.48.04-.71h0s.03.01.04.02c.32.13.45.21.44.34h.01c-.01.2-.03.4-.04.6-.1-.06-.2-.11-.3-.16ZM154.44,50.08c-.07-.03-.13-.06-.19-.08,0-.23.02-.45.03-.66.02.01.05.02.07.04.19.08.42.19.42.28h.01c0,.19-.02.39-.03.58-.11-.06-.22-.11-.32-.15ZM154.53,48.97c-.08-.03-.16-.07-.23-.11,0-.24.01-.47.02-.7h0s.04.02.06.03c.26.11.44.19.44.3h.01c0,.2-.01.41-.02.61-.09-.05-.18-.1-.27-.13ZM154.55,47.79c-.08-.03-.15-.07-.22-.1,0-.25,0-.47,0-.69.02,0,.04.02.06.03.21.08.44.18.44.29h0c0,.2,0,.4,0,.61-.1-.05-.2-.1-.29-.14ZM154.56,46.62c-.08-.03-.16-.06-.23-.1v-.1c0-.18,0-.37,0-.58.03.01.05.02.08.03.2.08.44.17.44.27h0c0,.09,0,.18,0,.28,0,.11,0,.22,0,.33-.09-.05-.19-.09-.29-.13ZM154.93,37.29c-.07-.02-.14-.03-.21-.05-.03-.21-.06-.42-.09-.63.02,0,.04,0,.05.01.21.04.46.09.48.19h0c.03.18.06.37.08.56-.1-.03-.21-.06-.31-.08ZM154.75,36.19c-.07-.01-.14-.03-.21-.04-.04-.21-.08-.42-.11-.62.02,0,.04,0,.06.01.19.03.45.07.48.16.04.19.07.38.1.57-.11-.03-.21-.05-.31-.07ZM154.55,35.1c-.07-.01-.14-.02-.21-.04-.05-.23-.1-.45-.15-.67.01,0,.02,0,.03,0,.2.03.47.08.51.17.04.19.09.39.13.59-.1-.02-.21-.04-.3-.06ZM154.29,33.97c-.06-.01-.14-.02-.21-.04-.06-.22-.12-.43-.18-.64h0c.21.04.48.08.54.18.05.18.11.37.16.57-.1-.03-.21-.05-.31-.06ZM154.29,31.78c-.11-.23-.22-.45-.33-.65l2.06-3.05c.35.3.7.61,1.04.94l-2.77,2.77ZM149.61,22.72h0c.02.23.02.46-.01.69-.33.18-.63.41-.88.68-.23-.37-.38-.78-.42-1.22h0c-.07-.68.1-1.34.47-1.91.47.48.78,1.09.85,1.77ZM147.03,16.45c.59.32,1.06.82,1.32,1.45.09.21.14.42.18.63-.12.24-.2.49-.26.74h0c-.31-.52-.74-.93-1.25-1.22-.05-.19-.09-.39-.11-.59-.02-.34.03-.68.12-1.02ZM146.37,18.27c.63.23,1.16.66,1.5,1.24.12.2.21.41.28.62-.23.3-.4.63-.51.98-.36-.24-.68-.54-.9-.92-.23-.38-.37-.79-.41-1.22-.02-.23.01-.47.04-.7ZM147.42,21.6s.05.09.08.13c-.03.24-.04.48-.02.72-.08-.06-.16-.13-.25-.19-.15-.13-.31-.25-.48-.35l-.2-.12-.12.21c-.05.08-.09.17-.12.26-.04-.04-.09-.08-.14-.12-.11-.12-.21-.24-.3-.37,0-.43-.02-.87-.04-1.32.09.03.18.06.27.09.35.46.8.82,1.33,1.06ZM145.67,16.04c.15.17.27.35.37.54-.05.36-.03.72.03,1.07-.04-.02-.09-.04-.13-.05-.13-.16-.29-.31-.45-.44-.08-.5-.18-1.01-.3-1.53.17.12.33.25.47.41ZM145.87,25.01c0-.69,0-1.38,0-2.09.3.63.48,1.34.48,2.09,0,2.68-2.18,4.86-4.86,4.86s-4.86-2.18-4.86-4.86c0-.78.19-1.52.52-2.18-.02.65-.04,1.38-.04,2.18,0,2.41,1.96,4.38,4.37,4.38s4.38-1.96,4.38-4.38ZM138.18,2.32c.26-.91.88-.45,1.63.5,0,0,0,0,0,0,.04.05.1.08.16.08,0,0,.02,0,.03,0-.7,1.47-1.02,3.68-.81,6,0,0,0,0-.01,0-.43-1.6-1.35-5.37-1.01-6.59ZM137.57,12.69s0-.06.02-.09c0,0,0,0,0,0,.06-.33.43-1,.72-1.26.39-.34.82-.31.98-.04.17.28.09.63-.42.84-.42.17-.49.55-.66.75-.06.09-.16.15-.28.15-.04,0-.07-.01-.11-.02h0c-.14-.05-.24-.17-.24-.33ZM131.76,15.19l4.16-2.47v-.03c.35-.79.98-1.49,1.39-1.88.32-.27.8-.7,1.27-1.22-.7,1.9-1.46,3.75-2.43,4.22-.88.43-2.93,1.26-3.4,1.45h0c-.34.13-.92.32-1.25.19.07-.1.15-.19.26-.25ZM131.6,16.3c.39.03.87-.05,1.45-.28.21-.08.32-.32.23-.53-.06-.15-.19-.24-.34-.26.66-.04,1.07.63.75,1.17,0,0,.68.79,2.49-.38,2.09-1.34,6.13.44,7.44-3.61-.36-.07-1.11-1.07.2-2.3,1.29-1.2,1.83-2.66,2-3.19.02-.03.04-.06.06-.1.28.33.48.86.48,1.52,0,.44-.09.94-.29,1.46-.3.77-.71,1.18-1.1,1.58-.38.38-.77.77-1.04,1.45l-.03.08v.04c1.07,5,.04,8.42-4.54,12.31-1.49-1.47-1.67-3.92-1.62-5.13l.02-.19c.44.06.88.09,1.3.1v-.44c-2.17-.03-5-.94-5.03-.95-2.07-.24-2.35-.57-2.42-.89.75.19,1.56.18,2.82-.02l-.07-.43c-1.34.21-2.14.2-2.91-.04,0,0,0,0,0,0-.2-.31-.06-.75.16-.95ZM119.1,29s0-.05-.02-.07c-.02-.02-.05,0-.07.01,0,0,0,0,0,0-.26.39-.53.92-.53,1.44,0,.07,0,.14.02.2l-.1-.1c-.39-.45-.12-1.44.2-1.99.01-.02,0-.05-.02-.07-.02-.01-.05,0-.07.02,0,0,0,0,0,0-.27.39-.54.92-.54,1.44,0,.07,0,.14.02.2l-.04-.04c-.41-.41-.27-1.29.33-2.1,3.33-4.48,7.88-7.86,13-9.8.16.3.53.54,1.41.73-.8,1.15-1.38,2.45-1.68,3.86-.19.22-.43.44-.71.59-.69.38-1.41.24-1.8-.46-.37-.66-.2-1.39.47-1.76.32-.18.66-.26,1.06-.27l-.35-.8c-.4.09-.79.2-1.15.4-1.16.65-1.68,1.74-1,2.97.74,1.34,2.1,1.21,3.04.68.1-.05.17-.1.25-.15-.03.34-.06.69-.06,1.04l-.05.03c-3.27,1.76-6.13,4.31-8.26,7.51-.33.52-.5,1.05-.5,1.51h0c-.39-.46-.12-1.46.2-2,.01-.02,0-.05-.02-.07-.02-.02-.05,0-.07.02,0,0,0,0,0,0-.27.39-.54.91-.54,1.44,0,.07,0,.14.02.2l-.1-.1c-.39-.45-.12-1.45.2-1.99.01-.02,0-.05-.02-.07-.02-.02-.05,0-.07.01,0,0,0,0,0,0-.26.39-.54.92-.54,1.44,0,.07,0,.14.02.2l-.1-.1c-.39-.45-.12-1.44.2-1.99.01-.02,0-.05-.02-.07-.02-.01-.05,0-.07.01,0,0,0,0,0,0-.27.39-.53.92-.53,1.44,0,.07,0,.13.02.2l-.1-.1c-.39-.45-.12-1.44.2-1.99.01-.02,0-.05-.01-.07-.03-.01-.06,0-.07.01,0,0,0,0,0,0-.27.39-.54.91-.54,1.44,0,.07,0,.14.02.2l-.1-.1c-.39-.45-.12-1.44.2-1.99.01-.02,0-.05-.02-.07-.02-.01-.05,0-.07.02,0,0,0,0,0,0-.26.39-.53.91-.53,1.44,0,.07,0,.14.02.2l-.1-.1c-.39-.45-.12-1.44.2-1.99.01-.02,0-.05-.02-.07-.02-.01-.05,0-.07.02,0,0,0,0,0,0-.27.39-.53.92-.53,1.44,0,.07,0,.13.02.2l-.1-.1c-.39-.45-.12-1.44.2-1.99ZM116.76,42.21c-.31-.48-.05-1.4.25-1.92.01-.02,0-.05-.02-.07-.02-.02-.05,0-.07.01,0,0,0,0,0,0-.26.39-.53.92-.53,1.44,0,.07,0,.14.02.21l-.09-.09c-.42-.44-.14-1.46.18-2.02.01-.02,0-.05-.02-.07-.02-.01-.05,0-.07.02h0c-.27.39-.54.92-.54,1.44,0,.07,0,.14.02.21l-.09-.09c-.42-.44-.14-1.46.18-2.01.01-.02,0-.05-.01-.07-.02-.01-.05,0-.07.02,0,0,0,0,0,0-.26.39-.53.92-.53,1.44,0,.07,0,.14.02.21l-.09-.09c-.41-.44-.14-1.46.19-2.01.01-.02,0-.05-.02-.07-.02-.01-.05,0-.07.01,0,0,0,0,0,0-.27.39-.53.92-.53,1.44,0,.07,0,.14.02.21l-.09-.09c-.41-.44-.14-1.46.19-2.01.01-.02,0-.05-.02-.07-.02-.01-.05,0-.07.02,0,0,0,0,0,0-.27.39-.53.92-.53,1.44,0,.07,0,.14.02.21l-.09-.09c-.41-.44-.13-1.45.19-2.01.01-.02,0-.05-.02-.07-.02-.02-.05,0-.07.01,0,0,0,0,0,0-.27.39-.54.92-.54,1.44,0,.07,0,.14.02.21l-.09-.09c-.41-.45-.13-1.45.19-2,.01-.03,0-.06-.02-.07-.02-.01-.05,0-.07.01,0,0,0,0,0,0-.26.39-.53.92-.53,1.44,0,.07,0,.14.02.21l-.09-.1c-.4-.45-.13-1.45.19-2,.01-.02,0-.05-.02-.07-.02-.01-.05,0-.07.01,0,0,0,0,0,0-.27.39-.54.92-.54,1.44,0,.07.01.14.02.2-.49-.5-.16-1.65.71-2.53,1.48-1.5,3.31-2.87,5.44-4.08l.36.36c-.79.43-1.49.86-2.06,1.27h0s0,0,0,0c-.01.01-.02.03-.02.04,0,0,0,.02,0,.03.02.02.04.03.07.02,0,0,1.02-.61,2.16-1.21l.36.36c-.8.43-1.5.86-2.07,1.27-.02.02-.03.05-.01.07.02.02.05.03.07.02.01,0,1.02-.61,2.17-1.2l.36.36c-.8.43-1.5.85-2.08,1.25,0,0,0,0,0,0-.01,0-.02.03-.02.04,0,0,0,.02,0,.03.02.02.04.03.07.02.01,0,1.03-.6,2.18-1.19l.36.36c-.8.42-1.51.84-2.09,1.25-.02.02-.03.05-.01.07.01.02.05.03.07.02.01,0,1.03-.6,2.19-1.18l.36.36c-.81.42-1.51.83-2.09,1.24,0,0,0,0,0,0-.01.01-.02.03-.02.04,0,0,0,.02,0,.03.01.02.04.03.07.02.01,0,1.04-.6,2.2-1.17l.36.36c-.81.41-1.52.83-2.1,1.23h0s0,0,0,0c-.01,0-.02.03-.02.04,0,0,0,.02,0,.03.01.02.04.03.07.02,0,0,1.04-.59,2.21-1.16l.17.17h0c.07.06.14.12.22.17-.83.42-1.55.83-2.15,1.23,0,0,0,0,0,0-.01,0-.02.02-.02.04,0,0,0,.02,0,.03.01.02.04.03.07.02.01,0,1.12-.63,2.35-1.21.36.12.8.09,1.27-.07-.79.36-2.08.98-3.16,1.7-.02.01-.03.04-.01.07.01.02.04.03.07.02.02-.01,2.06-1.14,3.66-1.76,0,.15,0,.3.02.45-2.81,1.22-5.15,2.74-6.76,4.38-.68.68-1.06,1.48-1.07,2.15ZM124.95,43.61c-1.73,1.72-4.51,5.04-4.87,8.56-.51-.99-.77-1.98-.77-3.33,0-1.05.15-2.31.43-3.93l.08-.45-.4.23c-2.07,1.16-2.9,1.84-3.44,2.64.18-1.22.66-2.5,1.45-3.85.86.57,2.01.29,3.21-.81.49-.42,1.03-.83,1.6-1.23-.14.15-.28.3-.43.44-.02.02-.02.05,0,.07.02.02.05.02.07,0,0,0,0,0,0,0h0c.36-.27.68-.58.94-.9.12-.08.24-.16.37-.24.14-.09.29-.17.43-.23-.25.61-.72,1.26-1.31,1.8-.02.02-.02.05,0,.07.02.02.05.02.07,0,0,0,0,0,0,0h0c.75-.55,1.31-1.27,1.55-1.99.13-.04.25-.06.37-.08-.1.93-.84,1.91-1.49,2.5-.02.02-.02.05,0,.07.02.02.05.02.07,0,0,0,0,0,0,0h0c.98-.72,1.6-1.7,1.67-2.6.08,0,.17,0,.24.02.17.98-.59,2.2-1.48,3.01-.02.02-.02.05,0,.07.02.02.05.02.07,0,0,0,0,0,0,0h0c.85-.62,1.41-1.42,1.6-2.19.03.3.06.6.1.9-.26.59-.71,1.21-1.27,1.72-.02.02-.02.05,0,.07.02.02.05.02.07,0,0,0,0,0,0,0h0s0,0,0,0c.53-.39.96-.86,1.25-1.36.03.22.06.44.09.65l-.3.35ZM141.5,66.58c-4.68-1.22-8.42-4.43-11.1-9.41,1.48,3.59,4.34,6.75,7.89,8.73-3.51-1.71-6.38-4.67-8.55-8.85-2.95-5.69-4.55-13.5-4.75-23.22,2.3-1.1,4.67-1.95,7.1-2.57.17-.05.39-.1.58-.14,1.94,2.8,5.17,4.63,8.83,4.63s6.8-1.78,8.74-4.51c.12.12.25.27.36.48,1.13,1.91,2.14,7.41,2.14,14.69,0,5.2-.54,9.99-1.38,12.82-2.56,3.81-5.86,6.31-9.86,7.35ZM150.08,62.94c-.11.02-.22.04-.33.04-.06,0-.13,0-.19-.02.17-.17.34-.35.5-.53,0,.03,0,.05.01.08.01.14.04.36,0,.42ZM144.68,65.92c2.61-1.45,4.84-3.54,6.43-5.97-.24.67-.5,1.18-.78,1.51h0c-1.64,1.94-3.53,3.43-5.66,4.46ZM150.53,62.76c0-.1-.02-.2-.03-.3-.02-.19-.04-.4,0-.52.07-.09.15-.17.22-.26.07.09.15.18.22.26.08.08.21.22.22.28-.2.23-.41.42-.63.54ZM151.26,61.64c-.16-.17-.29-.32-.25-.4h0c.1-.17.2-.37.29-.58.07.08.15.14.23.2.18.15.31.26.29.34-.12.24-.25.46-.37.65-.06-.08-.13-.15-.19-.21ZM151.48,62.76c0-.07,0-.14-.02-.21h0c.16-.18.3-.38.44-.6.08.08.2.22.21.28-.2.23-.41.42-.63.54ZM152.22,61.64s-.06-.06-.08-.09c.12-.22.23-.45.34-.7,0,0,0,0,.01.01.17.15.31.26.29.34-.12.24-.24.46-.38.65-.06-.08-.13-.15-.18-.21ZM152.44,62.76c0-.07,0-.14-.01-.21.16-.18.3-.38.44-.6.08.08.2.22.21.28-.2.23-.41.42-.64.54ZM153.36,61.85c-.06-.08-.13-.15-.19-.21-.03-.03-.05-.06-.08-.09.12-.22.23-.45.34-.7h0s0,0,.01.01c.18.15.31.26.29.34-.12.24-.24.46-.38.65ZM153.95,60.73c-.07-.08-.16-.15-.23-.21-.04-.03-.09-.07-.12-.1.08-.22.16-.44.23-.67.01,0,.02.02.03.03.14.1.32.24.33.32-.08.22-.16.44-.25.64ZM154.36,59.61c-.08-.07-.16-.13-.23-.19-.05-.04-.11-.08-.16-.12.06-.22.12-.45.18-.68,0,0,.02.01.03.02.16.11.38.25.36.35-.06.22-.12.43-.18.63ZM154.67,58.46c-.08-.07-.17-.13-.25-.19-.05-.04-.11-.08-.17-.12.05-.23.1-.46.15-.69.02,0,.03.02.04.03.16.1.39.24.38.33-.05.22-.1.43-.15.64ZM154.93,57.29c-.08-.06-.17-.12-.26-.17-.06-.04-.12-.08-.18-.12.04-.23.08-.46.12-.69h0s.03.02.04.03c.17.1.41.23.39.33h0c-.04.21-.08.42-.12.63ZM155.14,56.12c-.09-.06-.18-.12-.27-.17-.06-.04-.13-.07-.19-.11.03-.23.07-.46.1-.69h0s.03.02.05.03c.17.09.41.22.4.32h0c-.03.21-.06.42-.1.63ZM155.31,54.95c-.09-.06-.18-.11-.27-.16-.07-.04-.13-.08-.2-.12.03-.23.05-.46.08-.69.02.01.03.02.05.03.19.1.42.22.41.32h0c-.03.21-.05.42-.08.62ZM155.44,53.78c-.09-.06-.19-.11-.28-.16-.07-.03-.14-.07-.2-.11.02-.23.04-.46.06-.69.02,0,.04.02.05.03.19.09.42.21.41.31h.01c-.02.21-.04.42-.06.62ZM155.55,52.61c-.09-.06-.19-.11-.28-.15-.07-.03-.14-.07-.21-.11.02-.23.04-.47.05-.7.01,0,.03.02.05.02.26.12.43.21.42.33h.01c-.01.21-.03.41-.05.62ZM155.64,51.43c-.1-.06-.2-.11-.3-.16-.07-.03-.14-.06-.2-.1.02-.24.03-.48.04-.71.01,0,.03.01.04.02.32.13.45.21.44.34h.01c-.01.2-.03.4-.04.6ZM155.71,50.23c-.1-.06-.22-.11-.32-.15-.07-.03-.13-.06-.18-.08,0-.23.02-.45.02-.66.02.01.05.02.07.04.19.08.42.19.42.28h.01c0,.19-.02.39-.03.58ZM155.76,49.1c-.09-.05-.18-.1-.27-.13-.08-.03-.16-.07-.23-.11,0-.24.01-.47.02-.7.02,0,.04.02.06.03.26.11.44.19.44.3h.01c0,.2-.01.41-.02.61ZM155.79,47.92c-.1-.05-.2-.1-.29-.14-.08-.03-.15-.07-.22-.1,0-.25,0-.47,0-.69.02,0,.04.02.07.03.21.08.44.18.44.29h0c0,.2,0,.4,0,.61ZM155.8,46.75c-.09-.05-.19-.09-.29-.13-.08-.03-.16-.06-.23-.1v-.1c0-.18,0-.37,0-.58.03.01.05.02.08.03.2.08.44.17.44.27h0v.28c0,.11,0,.22,0,.33ZM156.2,48.98c.03-1.03.04-1.91.04-2.56,0-2.79-.16-9.97-1.71-14.05,1.17.43,2.33.91,3.47,1.45-.12,5.73-.73,10.8-1.81,15.16ZM167.01,47.33c-.54-.8-1.36-1.48-3.44-2.64l-.4-.23.08.45c.28,1.62.43,2.88.43,3.93,0,1.34-.26,2.34-.77,3.33-.35-3.52-3.14-6.84-4.87-8.56l-.3-.35c.03-.22.06-.44.09-.65.29.5.73.97,1.25,1.35,0,0,0,0,0,0h0s0,0,0,0c.02.02.05.01.07,0,.02-.02.02-.05,0-.07-.56-.51-1.01-1.13-1.27-1.72.04-.3.07-.6.1-.9.19.77.76,1.56,1.6,2.18,0,0,0,0,0,0h0s0,0,0,0c.02.02.05.01.07,0,.02-.02.01-.05,0-.07-.89-.81-1.65-2.03-1.48-3.01.08-.01.16-.02.24-.02.07.9.69,1.87,1.67,2.59,0,0,0,0,0,0h0s0,0,0,0c.02.02.05.01.07,0,.02-.02.01-.05,0-.07-.65-.59-1.38-1.57-1.49-2.5.12.02.25.04.37.08.24.72.79,1.44,1.55,1.99h0s0,0,0,0c.02.02.05.01.07,0,.02-.02.02-.05,0-.07-.59-.54-1.06-1.19-1.3-1.8.14.06.29.14.43.23.13.08.25.16.37.24.26.33.58.64.94.9h0s0,0,0,0c.02.02.05.01.07,0,.02-.02.01-.05,0-.07-.15-.14-.29-.28-.43-.44.57.4,1.11.81,1.6,1.23,1.2,1.09,2.34,1.37,3.21.81.8,1.34,1.28,2.63,1.45,3.85ZM170.11,38.36h0c.01-.07.02-.15.02-.22,0-.52-.27-1.04-.53-1.42,0,0,0,0,0,0-.02-.02-.05-.03-.07-.01-.02.01-.03.05-.02.07.32.55.6,1.56.19,2l-.1.11c0-.08.02-.15.02-.23,0-.52-.26-1.04-.53-1.42,0,0,0,0,0,0-.01-.02-.04-.03-.07-.01-.02.01-.03.04-.02.07.32.55.6,1.56.19,2l-.1.1c.01-.08.02-.15.02-.23,0-.52-.27-1.04-.53-1.43h0s-.05-.03-.07-.02c-.02.01-.03.04-.02.07.32.55.6,1.56.19,2.01l-.1.1c.01-.08.02-.16.02-.23,0-.52-.27-1.04-.53-1.42,0,0,0,0,0,0-.02-.02-.05-.03-.07-.02-.02.02-.03.05-.02.07.32.55.6,1.57.19,2.01l-.1.1c.01-.08.02-.16.02-.23,0-.52-.26-1.04-.53-1.42,0,0,0,0,0,0-.01-.02-.04-.03-.07-.01-.02.01-.03.04-.02.07.32.55.6,1.57.18,2.01l-.1.1c.01-.08.02-.16.02-.23,0-.52-.26-1.04-.53-1.42,0,0,0,0,0,0-.02-.02-.05-.03-.07-.02-.02.02-.03.05-.02.07.32.56.6,1.57.19,2.01l-.1.1c.01-.08.02-.16.02-.23,0-.52-.26-1.04-.52-1.43,0,0,0,0,0,0-.02-.02-.05-.03-.07-.02-.02.02-.03.05-.02.07.32.56.6,1.58.18,2.02l-.09.1c.01-.08.02-.16.02-.24,0-.52-.27-1.04-.53-1.42,0,0,0,0,0,0-.01-.02-.04-.03-.07-.01-.02.01-.03.04-.02.07.3.52.56,1.44.25,1.92-.02-.67-.4-1.47-1.08-2.15-1.62-1.64-3.95-3.16-6.76-4.38,0-.15.01-.3.02-.45,1.61.63,3.64,1.75,3.66,1.76.02.01.05,0,.07-.02.01-.03,0-.06-.02-.07-1.08-.72-2.37-1.35-3.16-1.7.46.16.91.19,1.26.07,1.22.58,2.34,1.21,2.35,1.21.02.01.05,0,.07-.02,0,0,0-.02,0-.03,0-.02,0-.03-.02-.04,0,0,0,0,0,0-.6-.4-1.32-.82-2.15-1.23.08-.05.16-.1.22-.17h0s.17-.17.17-.17c1.16.57,2.2,1.15,2.21,1.16.03.01.05,0,.07-.02,0,0,0-.02,0-.03,0-.02,0-.03-.02-.04,0,0,0,0,0,0h0c-.58-.4-1.29-.81-2.1-1.23l.36-.36c1.16.57,2.19,1.16,2.2,1.17.02.01.05,0,.07-.02,0,0,0-.02,0-.03,0-.02,0-.03-.02-.04,0,0,0,0,0,0-.58-.4-1.29-.82-2.09-1.24l.36-.36c1.16.58,2.18,1.17,2.19,1.18.02.01.05,0,.07-.02.02-.02,0-.05-.01-.07-.58-.41-1.29-.82-2.09-1.25l.36-.36c1.15.58,2.17,1.18,2.18,1.19.02.01.05,0,.07-.02,0,0,0-.02,0-.03,0-.02,0-.03-.02-.04,0,0,0,0,0,0-.57-.41-1.27-.83-2.07-1.25l.36-.36c1.15.59,2.16,1.19,2.17,1.2.02.01.05,0,.07-.02.02-.02,0-.05-.01-.07-.58-.41-1.27-.84-2.07-1.27l.36-.36c1.14.59,2.15,1.2,2.16,1.21.02.01.05,0,.07-.02,0,0,0-.02,0-.03,0-.02,0-.03-.02-.04,0,0,0,0,0,0h0c-.57-.41-1.27-.84-2.06-1.27l.36-.36c2.12,1.21,3.96,2.58,5.44,4.08.88.88,1.21,2.04.71,2.54ZM143.8,11.87s0,0,0,0c.24-.36.51-.64.76-.89.37-.37.72-.72.97-1.38.14-.37.21-.73.23-1.08-.35.64-.84,1.36-1.55,2.03-.36.34-.56.68-.56.97,0,.02,0,.03,0,.05.02.19.11.29.14.31Z"/>
      <path class="cls-2" d="M123.72,27.48c-1.1-.96-2.03.77-2.52.33-.27-.23.01-.59.19-.79.2-.23.45-.43.73-.55l-.58-.6c-.25.14-.54.39-.8.68-.53.61-.96,1.5-.23,2.14,1.11.97,2.01-.78,2.58-.29.24.21.08.5-.14.76-.29.34-.64.55-.93.66l.61.66c.32-.19.68-.51.92-.79.59-.67.96-1.52.17-2.21Z"/>
      <path class="cls-2" d="M125.39,26.5l1.18-.96.78.48.92-.75-3.76-2.15-1.02.83,1.36,4.1.85-.69-.3-.87ZM124.51,24.2h0s1.37.92,1.37.92l-.79.64-.59-1.56Z"/>
      <path class="cls-2" d="M158.17,22.88l-3.71,2.22.86.68.78-.48,1.19.94-.3.86.93.73,1.29-4.14-1.03-.82ZM157.56,25.48l-.79-.63,1.39-.92h0s-.6,1.54-.6,1.54Z"/>
    </g>
  </g>
  <g>
    <path class="cls-4" d="M20.83,12.76c.41.22.99.4,1.66.4.51,0,.99-.1.99-.59,0-1.12-2.85-.41-2.85-2.6,0-1.45,1.41-1.85,2.62-1.85.58,0,1.15.09,1.55.22l-.1,1.24c-.41-.19-.88-.28-1.34-.28-.41,0-1.08.03-1.08.56,0,.97,2.85.32,2.85,2.49,0,1.56-1.31,1.98-2.65,1.98-.56,0-1.26-.09-1.79-.26l.14-1.33Z"/>
    <path class="cls-4" d="M28.19,12.45c.09.62.56.86,1.32.86.42,0,.91-.09,1.37-.34v1.09c-.5.2-1.07.28-1.65.28-1.48,0-2.61-.87-2.61-2.35s1.01-2.35,2.41-2.35c1.66,0,2.27,1.18,2.27,2.52v.28h-3.1ZM29.9,11.57c0-.52-.24-.94-.86-.94-.56,0-.83.42-.86.94h1.72Z"/>
    <path class="cls-4" d="M32.94,7.78h1.55v3.86h.02l1.29-1.89h1.7l-1.56,2.06,1.69,2.43h-1.88l-1.24-2.22h-.02v2.22h-1.55v-6.47Z"/>
    <path class="cls-4" d="M38.65,9.75h.91v-1.01l1.53-.47v1.48h1.09v1.09h-1.09v1.66c0,.54.13.82.62.82.16,0,.32-.03.47-.06l.05,1.01c-.29.03-.59.09-.97.09-1.39,0-1.72-.61-1.72-1.68v-1.83h-.89v-1.09Z"/>
    <path class="cls-4" d="M45.44,9.02h-1.55v-1.14h1.55v1.14ZM43.89,9.75h1.55v4.49h-1.55v-4.49Z"/>
    <path class="cls-4" d="M47.21,12c0-1.49,1.13-2.35,2.61-2.35s2.61.86,2.61,2.35-1.13,2.35-2.61,2.35-2.61-.86-2.61-2.35ZM50.83,12c0-.67-.29-1.27-1.01-1.27s-1.01.59-1.01,1.27.29,1.26,1.01,1.26,1.01-.59,1.01-1.26Z"/>
    <path class="cls-4" d="M54.02,9.75h1.41v.83h.02c.31-.65.93-.93,1.64-.93,1.22,0,1.72.86,1.72,1.79v2.8h-1.55v-2.17c0-.85-.29-1.13-.72-1.13-.64,0-.97.44-.97,1.41v1.9h-1.55v-4.49Z"/>
    <path class="cls-4" d="M64.11,8.23h2.77c1.12,0,1.96.49,1.96,1.53,0,.76-.39,1.18-1.06,1.41v.02c.8.16,1.21.6,1.21,1.33,0,1.44-1.27,1.74-2.34,1.74h-2.53v-6.02ZM65.71,10.61h.45c.53,0,1.07-.13,1.07-.64,0-.55-.52-.6-1.05-.6h-.46v1.24ZM65.71,13.11h.47c.59,0,1.2-.09,1.2-.7,0-.66-.63-.72-1.18-.72h-.49v1.41Z"/>
    <path class="cls-4" d="M72.02,12.45c.09.62.56.86,1.32.86.42,0,.91-.09,1.37-.34v1.09c-.5.2-1.07.28-1.65.28-1.48,0-2.61-.87-2.61-2.35s1.01-2.35,2.41-2.35c1.66,0,2.27,1.18,2.27,2.52v.28h-3.1ZM73.72,11.57c0-.52-.24-.94-.86-.94-.56,0-.83.42-.86.94h1.72Z"/>
    <path class="cls-4" d="M79.97,10.99c-.17-.05-.34-.05-.53-.05-.72,0-1.13.53-1.13,1.41v1.9h-1.55v-4.49h1.41v.83h.02c.27-.57.66-.93,1.33-.93.18,0,.37.03.53.05l-.08,1.29Z"/>
    <path class="cls-4" d="M81.58,9.75h1.41v.83h.02c.31-.65.93-.93,1.64-.93,1.22,0,1.72.86,1.72,1.79v2.8h-1.55v-2.17c0-.85-.29-1.13-.72-1.13-.64,0-.97.44-.97,1.41v1.9h-1.55v-4.49Z"/>
    <path class="cls-4" d="M89.9,9.02h-1.55v-1.14h1.55v1.14ZM88.35,9.75h1.55v4.49h-1.55v-4.49Z"/>
    <path class="cls-4" d="M91.89,9.75h1.41v.83h.02c.31-.65.93-.93,1.64-.93,1.22,0,1.72.86,1.72,1.79v2.8h-1.55v-2.17c0-.85-.29-1.13-.72-1.13-.64,0-.97.44-.97,1.41v1.9h-1.55v-4.49Z"/>
    <path class="cls-4" d="M101.41,14.24c0-.24-.04-.47-.04-.71h-.02c-.35.56-.79.81-1.42.81-.89,0-1.68-.44-1.68-1.41,0-1.37,1.49-1.53,2.32-1.53.25,0,.53.03.72.06,0-.61-.47-.78-1.03-.78-.5,0-1,.09-1.43.34l-.03-1.05c.55-.22,1.13-.32,1.79-.32,1.15,0,2.14.49,2.14,1.86v1.67c0,.35.02.71.09,1.06h-1.42ZM100.34,13.31c.59,0,.96-.53.96-1.06-.2,0-.42-.03-.66-.03-.53,0-.94.16-.94.6,0,.31.28.49.64.49Z"/>
  </g>
</svg>